<?xml version="1.0" encoding="UTF-8"?>
<!--Generator: Apple Native CoreSVG 123-->
<!DOCTYPE svg
PUBLIC "-//W3C//DTD SVG 1.1//EN"
       "http://www.w3.org/Graphics/SVG/1.1/DTD/svg11.dtd">
<svg version="1.1" xmlns="http://www.w3.org/2000/svg" xmlns:xlink="http://www.w3.org/1999/xlink" width="3300" height="2200">
 <!--glyph: "uni100708.medium", point size: 100.000000, font version: "Version 15.0d7e11", template writer version: "5"-->
 <g id="Notes">
  <rect height="2200" id="artboard" style="fill:white;opacity:1" width="3300" x="0" y="0"/>
  <line id="" style="fill:none;stroke:black;opacity:1;stroke-width:0.5;" x1="263" x2="3036" y1="292" y2="292"/>
  <text style="stroke:none;fill:black;font-family:-apple-system,&quot;SF Pro Display&quot;,&quot;SF Pro Text&quot;,Helvetica,sans-serif;font-weight:bold;" transform="matrix(1 0 0 1 263 322)">Weight/Scale Variations</text>
  <text style="stroke:none;fill:black;font-family:-apple-system,&quot;SF Pro Display&quot;,&quot;SF Pro Text&quot;,Helvetica,sans-serif;text-anchor:middle;" transform="matrix(1 0 0 1 559.711 322)">Ultralight</text>
  <text style="stroke:none;fill:black;font-family:-apple-system,&quot;SF Pro Display&quot;,&quot;SF Pro Text&quot;,Helvetica,sans-serif;text-anchor:middle;" transform="matrix(1 0 0 1 856.422 322)">Thin</text>
  <text style="stroke:none;fill:black;font-family:-apple-system,&quot;SF Pro Display&quot;,&quot;SF Pro Text&quot;,Helvetica,sans-serif;text-anchor:middle;" transform="matrix(1 0 0 1 1153.13 322)">Light</text>
  <text style="stroke:none;fill:black;font-family:-apple-system,&quot;SF Pro Display&quot;,&quot;SF Pro Text&quot;,Helvetica,sans-serif;text-anchor:middle;" transform="matrix(1 0 0 1 1449.84 322)">Regular</text>
  <text style="stroke:none;fill:black;font-family:-apple-system,&quot;SF Pro Display&quot;,&quot;SF Pro Text&quot;,Helvetica,sans-serif;text-anchor:middle;" transform="matrix(1 0 0 1 1746.56 322)">Medium</text>
  <text style="stroke:none;fill:black;font-family:-apple-system,&quot;SF Pro Display&quot;,&quot;SF Pro Text&quot;,Helvetica,sans-serif;text-anchor:middle;" transform="matrix(1 0 0 1 2043.27 322)">Semibold</text>
  <text style="stroke:none;fill:black;font-family:-apple-system,&quot;SF Pro Display&quot;,&quot;SF Pro Text&quot;,Helvetica,sans-serif;text-anchor:middle;" transform="matrix(1 0 0 1 2339.98 322)">Bold</text>
  <text style="stroke:none;fill:black;font-family:-apple-system,&quot;SF Pro Display&quot;,&quot;SF Pro Text&quot;,Helvetica,sans-serif;text-anchor:middle;" transform="matrix(1 0 0 1 2636.69 322)">Heavy</text>
  <text style="stroke:none;fill:black;font-family:-apple-system,&quot;SF Pro Display&quot;,&quot;SF Pro Text&quot;,Helvetica,sans-serif;text-anchor:middle;" transform="matrix(1 0 0 1 2933.4 322)">Black</text>
  <line id="" style="fill:none;stroke:black;opacity:1;stroke-width:0.5;" x1="263" x2="3036" y1="1903" y2="1903"/>
  <g id="" transform="matrix(1 0 0 1 263 1933)">
   <path d="M 9.24805 0.830078 C 13.5547 0.830078 17.1387 -2.74414 17.1387 -7.05078 C 17.1387 -11.3574 13.5449 -14.9316 9.23828 -14.9316 C 4.94141 -14.9316 1.36719 -11.3574 1.36719 -7.05078 C 1.36719 -2.74414 4.95117 0.830078 9.24805 0.830078 Z M 9.24805 -0.654297 C 5.70312 -0.654297 2.87109 -3.49609 2.87109 -7.05078 C 2.87109 -10.6055 5.69336 -13.4473 9.23828 -13.4473 C 12.793 -13.4473 15.6348 -10.6055 15.6445 -7.05078 C 15.6543 -3.49609 12.8027 -0.654297 9.24805 -0.654297 Z M 9.22852 -3.42773 C 9.69727 -3.42773 9.9707 -3.74023 9.9707 -4.25781 L 9.9707 -6.31836 L 12.1973 -6.31836 C 12.6953 -6.31836 13.0371 -6.57227 13.0371 -7.04102 C 13.0371 -7.51953 12.7148 -7.7832 12.1973 -7.7832 L 9.9707 -7.7832 L 9.9707 -10.0098 C 9.9707 -10.5273 9.69727 -10.8496 9.22852 -10.8496 C 8.75977 -10.8496 8.50586 -10.5078 8.50586 -10.0098 L 8.50586 -7.7832 L 6.29883 -7.7832 C 5.78125 -7.7832 5.44922 -7.51953 5.44922 -7.04102 C 5.44922 -6.57227 5.80078 -6.31836 6.29883 -6.31836 L 8.50586 -6.31836 L 8.50586 -4.25781 C 8.50586 -3.75977 8.75977 -3.42773 9.22852 -3.42773 Z"/>
  </g>
  <g id="" transform="matrix(1 0 0 1 281.506 1933)">
   <path d="M 11.709 2.91016 C 17.1582 2.91016 21.6699 -1.60156 21.6699 -7.05078 C 21.6699 -12.4902 17.1484 -17.0117 11.6992 -17.0117 C 6.25977 -17.0117 1.74805 -12.4902 1.74805 -7.05078 C 1.74805 -1.60156 6.26953 2.91016 11.709 2.91016 Z M 11.709 1.25 C 7.09961 1.25 3.41797 -2.44141 3.41797 -7.05078 C 3.41797 -11.6504 7.08984 -15.3516 11.6992 -15.3516 C 16.3086 -15.3516 20 -11.6504 20.0098 -7.05078 C 20.0195 -2.44141 16.3184 1.25 11.709 1.25 Z M 11.6895 -2.41211 C 12.207 -2.41211 12.5195 -2.77344 12.5195 -3.33984 L 12.5195 -6.23047 L 15.5762 -6.23047 C 16.123 -6.23047 16.5039 -6.51367 16.5039 -7.03125 C 16.5039 -7.55859 16.1426 -7.86133 15.5762 -7.86133 L 12.5195 -7.86133 L 12.5195 -10.9277 C 12.5195 -11.5039 12.207 -11.8555 11.6895 -11.8555 C 11.1719 -11.8555 10.8789 -11.4844 10.8789 -10.9277 L 10.8789 -7.86133 L 7.83203 -7.86133 C 7.26562 -7.86133 6.89453 -7.55859 6.89453 -7.03125 C 6.89453 -6.51367 7.28516 -6.23047 7.83203 -6.23047 L 10.8789 -6.23047 L 10.8789 -3.33984 C 10.8789 -2.79297 11.1719 -2.41211 11.6895 -2.41211 Z"/>
  </g>
  <g id="" transform="matrix(1 0 0 1 304.924 1933)">
   <path d="M 14.9707 5.67383 C 21.9336 5.67383 27.6953 -0.078125 27.6953 -7.04102 C 27.6953 -14.0039 21.9238 -19.7559 14.9609 -19.7559 C 8.00781 -19.7559 2.25586 -14.0039 2.25586 -7.04102 C 2.25586 -0.078125 8.01758 5.67383 14.9707 5.67383 Z M 14.9707 3.85742 C 8.93555 3.85742 4.08203 -1.00586 4.08203 -7.04102 C 4.08203 -13.0762 8.92578 -17.9395 14.9609 -17.9395 C 21.0059 -17.9395 25.8594 -13.0762 25.8691 -7.04102 C 25.8789 -1.00586 21.0156 3.85742 14.9707 3.85742 Z M 14.9512 -1.06445 C 15.5176 -1.06445 15.8691 -1.45508 15.8691 -2.06055 L 15.8691 -6.13281 L 20.1074 -6.13281 C 20.6934 -6.13281 21.1133 -6.46484 21.1133 -7.02148 C 21.1133 -7.59766 20.7227 -7.93945 20.1074 -7.93945 L 15.8691 -7.93945 L 15.8691 -12.1875 C 15.8691 -12.8027 15.5176 -13.1934 14.9512 -13.1934 C 14.3848 -13.1934 14.0625 -12.7832 14.0625 -12.1875 L 14.0625 -7.93945 L 9.83398 -7.93945 C 9.21875 -7.93945 8.80859 -7.59766 8.80859 -7.02148 C 8.80859 -6.46484 9.23828 -6.13281 9.83398 -6.13281 L 14.0625 -6.13281 L 14.0625 -2.06055 C 14.0625 -1.47461 14.3848 -1.06445 14.9512 -1.06445 Z"/>
  </g>
  <text style="stroke:none;fill:black;font-family:-apple-system,&quot;SF Pro Display&quot;,&quot;SF Pro Text&quot;,Helvetica,sans-serif;font-weight:bold;" transform="matrix(1 0 0 1 263 1953)">Design Variations</text>
  <text style="stroke:none;fill:black;font-family:-apple-system,&quot;SF Pro Display&quot;,&quot;SF Pro Text&quot;,Helvetica,sans-serif;" transform="matrix(1 0 0 1 263 1971)">Symbols are supported in up to nine weights and three scales.</text>
  <text style="stroke:none;fill:black;font-family:-apple-system,&quot;SF Pro Display&quot;,&quot;SF Pro Text&quot;,Helvetica,sans-serif;" transform="matrix(1 0 0 1 263 1989)">For optimal layout with text and other symbols, vertically align</text>
  <text style="stroke:none;fill:black;font-family:-apple-system,&quot;SF Pro Display&quot;,&quot;SF Pro Text&quot;,Helvetica,sans-serif;" transform="matrix(1 0 0 1 263 2007)">symbols with the adjacent text.</text>
  <rect height="14" id="" style="fill:#00AEEF;stroke:none;opacity:0.4;" width="3" x="776" y="1919"/>
  <g id="" transform="matrix(1 0 0 1 779 1933)">
   <path d="M 10.5273 0 L 12.373 0 L 7.17773 -14.0918 L 5.43945 -14.0918 L 0.244141 0 L 2.08984 0 L 3.50586 -4.0332 L 9.11133 -4.0332 Z M 6.2793 -11.9531 L 6.33789 -11.9531 L 8.59375 -5.52734 L 4.02344 -5.52734 Z"/>
  </g>
  <rect height="14" id="" style="fill:#00AEEF;stroke:none;opacity:0.4;" width="3" x="791.617" y="1919"/>
  <text style="stroke:none;fill:black;font-family:-apple-system,&quot;SF Pro Display&quot;,&quot;SF Pro Text&quot;,Helvetica,sans-serif;font-weight:bold;" transform="matrix(1 0 0 1 776 1953)">Margins</text>
  <text style="stroke:none;fill:black;font-family:-apple-system,&quot;SF Pro Display&quot;,&quot;SF Pro Text&quot;,Helvetica,sans-serif;" transform="matrix(1 0 0 1 776 1971)">Leading and trailing margins on the left and right side of each symbol</text>
  <text style="stroke:none;fill:black;font-family:-apple-system,&quot;SF Pro Display&quot;,&quot;SF Pro Text&quot;,Helvetica,sans-serif;" transform="matrix(1 0 0 1 776 1989)">can be adjusted by modifying the width of the blue rectangles.</text>
  <text style="stroke:none;fill:black;font-family:-apple-system,&quot;SF Pro Display&quot;,&quot;SF Pro Text&quot;,Helvetica,sans-serif;" transform="matrix(1 0 0 1 776 2007)">Modifications are automatically applied proportionally to all</text>
  <text style="stroke:none;fill:black;font-family:-apple-system,&quot;SF Pro Display&quot;,&quot;SF Pro Text&quot;,Helvetica,sans-serif;" transform="matrix(1 0 0 1 776 2025)">scales and weights.</text>
  <g id="" transform="matrix(1 0 0 1 1289 1933)">
   <path d="M 2.83203 3.11523 L 4.375 4.6582 C 5.22461 5.48828 6.19141 5.41992 7.06055 4.46289 L 17.2754 -6.66016 C 17.7051 -6.36719 18.0957 -6.37695 18.5645 -6.47461 L 19.6094 -6.68945 L 20.3027 -5.99609 L 20.2539 -5.47852 C 20.1855 -4.95117 20.3516 -4.53125 20.8496 -4.0332 L 21.6602 -3.22266 C 22.168 -2.71484 22.8223 -2.68555 23.3008 -3.16406 L 26.5527 -6.41602 C 27.0312 -6.89453 27.0117 -7.54883 26.5039 -8.05664 L 25.6836 -8.87695 C 25.1855 -9.375 24.7754 -9.55078 24.2383 -9.47266 L 23.7109 -9.41406 L 23.0566 -10.0781 L 23.3398 -11.2207 C 23.4863 -11.7871 23.3398 -12.2559 22.7148 -12.8613 L 20.3027 -15.2539 C 16.7578 -18.7793 12.2266 -18.6719 9.11133 -15.5371 C 8.69141 -15.1074 8.64258 -14.5215 8.91602 -14.0918 C 9.15039 -13.7207 9.62891 -13.4961 10.2734 -13.6621 C 11.7871 -14.043 13.3008 -13.9258 14.7852 -12.9199 L 14.1602 -11.3379 C 13.9258 -10.752 13.9453 -10.2734 14.1797 -9.83398 L 3.01758 0.439453 C 2.08008 1.30859 1.97266 2.25586 2.83203 3.11523 Z M 10.6738 -15.1465 C 13.3398 -17.1387 16.6504 -16.8262 19.0527 -14.4141 L 21.6797 -11.8066 C 21.9141 -11.5723 21.9434 -11.3867 21.8848 -11.0938 L 21.5039 -9.53125 L 23.0762 -7.95898 L 24.043 -8.04688 C 24.3262 -8.07617 24.4141 -8.05664 24.6387 -7.83203 L 25.2637 -7.20703 L 22.5098 -4.46289 L 21.8848 -5.07812 C 21.6602 -5.30273 21.6406 -5.40039 21.6699 -5.68359 L 21.7578 -6.64062 L 20.1953 -8.20312 L 18.5742 -7.89062 C 18.291 -7.83203 18.1445 -7.83203 17.9102 -8.07617 L 15.7324 -10.2539 C 15.5078 -10.4883 15.4785 -10.625 15.6055 -10.9473 L 16.5527 -13.2227 C 14.9512 -14.7559 12.8418 -15.6055 10.8008 -14.9512 C 10.7129 -14.9219 10.6445 -14.9414 10.6152 -14.9805 C 10.5859 -15.0293 10.5859 -15.0781 10.6738 -15.1465 Z M 4.10156 2.41211 C 3.61328 1.91406 3.78906 1.61133 4.12109 1.30859 L 15.0781 -8.80859 L 16.3086 -7.57812 L 6.15234 3.34961 C 5.84961 3.68164 5.46875 3.7793 5.06836 3.37891 Z"/>
  </g>
  <text style="stroke:none;fill:black;font-family:-apple-system,&quot;SF Pro Display&quot;,&quot;SF Pro Text&quot;,Helvetica,sans-serif;font-weight:bold;" transform="matrix(1 0 0 1 1289 1953)">Exporting</text>
  <text style="stroke:none;fill:black;font-family:-apple-system,&quot;SF Pro Display&quot;,&quot;SF Pro Text&quot;,Helvetica,sans-serif;" transform="matrix(1 0 0 1 1289 1971)">Symbols should be outlined when exporting to ensure the</text>
  <text style="stroke:none;fill:black;font-family:-apple-system,&quot;SF Pro Display&quot;,&quot;SF Pro Text&quot;,Helvetica,sans-serif;" transform="matrix(1 0 0 1 1289 1989)">design is preserved when submitting to Xcode.</text>
  <text id="template-version" style="stroke:none;fill:black;font-family:-apple-system,&quot;SF Pro Display&quot;,&quot;SF Pro Text&quot;,Helvetica,sans-serif;text-anchor:end;" transform="matrix(1 0 0 1 3036 1933)">Template v.1.0</text>
  <text style="stroke:none;fill:black;font-family:-apple-system,&quot;SF Pro Display&quot;,&quot;SF Pro Text&quot;,Helvetica,sans-serif;text-anchor:end;" transform="matrix(1 0 0 1 3036 1951)">Generated from mappin.circle.fill</text>
  <text style="stroke:none;fill:black;font-family:-apple-system,&quot;SF Pro Display&quot;,&quot;SF Pro Text&quot;,Helvetica,sans-serif;text-anchor:end;" transform="matrix(1 0 0 1 3036 1969)">Typeset at 100 points</text>
  <text style="stroke:none;fill:black;font-family:-apple-system,&quot;SF Pro Display&quot;,&quot;SF Pro Text&quot;,Helvetica,sans-serif;" transform="matrix(1 0 0 1 263 726)">Small</text>
  <text style="stroke:none;fill:black;font-family:-apple-system,&quot;SF Pro Display&quot;,&quot;SF Pro Text&quot;,Helvetica,sans-serif;" transform="matrix(1 0 0 1 263 1156)">Medium</text>
  <text style="stroke:none;fill:black;font-family:-apple-system,&quot;SF Pro Display&quot;,&quot;SF Pro Text&quot;,Helvetica,sans-serif;" transform="matrix(1 0 0 1 263 1586)">Large</text>
 </g>
 <g id="Guides">
  <g id="H-reference" style="fill:#27AAE1;stroke:none;" transform="matrix(1 0 0 1 339 696)">
   <path d="M 54.9316 0 L 57.666 0 L 30.5664 -70.459 L 28.0762 -70.459 L 0.976562 0 L 3.66211 0 L 12.9395 -24.4629 L 45.7031 -24.4629 Z M 29.1992 -67.0898 L 29.4434 -67.0898 L 44.8242 -26.709 L 13.8184 -26.709 Z"/>
  </g>
  <line id="Baseline-S" style="fill:none;stroke:#27AAE1;opacity:1;stroke-width:0.577;" x1="263" x2="3036" y1="696" y2="696"/>
  <line id="Capline-S" style="fill:none;stroke:#27AAE1;opacity:1;stroke-width:0.577;" x1="263" x2="3036" y1="625.541" y2="625.541"/>
  <g id="H-reference" style="fill:#27AAE1;stroke:none;" transform="matrix(1 0 0 1 339 1126)">
   <path d="M 54.9316 0 L 57.666 0 L 30.5664 -70.459 L 28.0762 -70.459 L 0.976562 0 L 3.66211 0 L 12.9395 -24.4629 L 45.7031 -24.4629 Z M 29.1992 -67.0898 L 29.4434 -67.0898 L 44.8242 -26.709 L 13.8184 -26.709 Z"/>
  </g>
  <line id="Baseline-M" style="fill:none;stroke:#27AAE1;opacity:1;stroke-width:0.577;" x1="263" x2="3036" y1="1126" y2="1126"/>
  <line id="Capline-M" style="fill:none;stroke:#27AAE1;opacity:1;stroke-width:0.577;" x1="263" x2="3036" y1="1055.54" y2="1055.54"/>
  <g id="H-reference" style="fill:#27AAE1;stroke:none;" transform="matrix(1 0 0 1 339 1556)">
   <path d="M 54.9316 0 L 57.666 0 L 30.5664 -70.459 L 28.0762 -70.459 L 0.976562 0 L 3.66211 0 L 12.9395 -24.4629 L 45.7031 -24.4629 Z M 29.1992 -67.0898 L 29.4434 -67.0898 L 44.8242 -26.709 L 13.8184 -26.709 Z"/>
  </g>
  <line id="Baseline-L" style="fill:none;stroke:#27AAE1;opacity:1;stroke-width:0.577;" x1="263" x2="3036" y1="1556" y2="1556"/>
  <line id="Capline-L" style="fill:none;stroke:#27AAE1;opacity:1;stroke-width:0.577;" x1="263" x2="3036" y1="1485.54" y2="1485.54"/>
  <rect height="119.336" id="left-margin" style="fill:#00AEEF;stroke:none;opacity:0.4;" width="8.74023" x="1391.3" y="1030.79"/>
  <rect height="119.336" id="right-margin" style="fill:#00AEEF;stroke:none;opacity:0.4;" width="8.74023" x="1499.65" y="1030.79"/>
 </g>
 <g id="Symbols">
  <g id="Black-L" transform="matrix(1 0 0 1 2854.05 1556)">
   <path d="M 79.3457 32.9102 C 116.748 32.9102 147.412 2.29492 147.412 -35.1074 C 147.412 -72.5586 116.748 -103.174 79.2969 -103.174 C 41.8945 -103.174 11.2793 -72.5586 11.2793 -35.1074 C 11.2793 2.29492 41.9434 32.9102 79.3457 32.9102 Z M 62.5 -54.6387 C 62.5 -63.8672 70.0195 -71.4355 79.2969 -71.4844 C 88.5742 -71.5332 96.1426 -64.0137 96.1426 -54.6387 C 96.1426 -47.6562 91.9922 -41.6504 85.8887 -39.1113 L 85.8887 -12.3047 C 85.8887 -5.81055 82.7637 2.63672 79.2969 2.63672 C 75.7812 2.63672 72.6562 -5.9082 72.6562 -12.3047 L 72.6562 -39.1602 C 66.6504 -41.6992 62.5 -47.7051 62.5 -54.6387 Z M 69.2871 -58.7891 C 69.2871 -55.6152 72.0215 -52.8809 75.1465 -52.8809 C 78.3691 -52.8809 81.0547 -55.6152 81.0547 -58.7891 C 81.0547 -62.0117 78.3691 -64.7461 75.1465 -64.7461 C 72.0215 -64.7461 69.2871 -62.0117 69.2871 -58.7891 Z"/>
  </g>
  <g id="Heavy-L" transform="matrix(1 0 0 1 2558.39 1556)">
   <path d="M 78.2715 31.8848 C 115.088 31.8848 145.312 1.66016 145.312 -35.1074 C 145.312 -71.9238 115.039 -102.148 78.2715 -102.148 C 41.4551 -102.148 11.2793 -71.9238 11.2793 -35.1074 C 11.2793 1.66016 41.5039 31.8848 78.2715 31.8848 Z M 62.1582 -55.7617 C 62.1582 -64.5996 69.3848 -71.8262 78.2715 -71.875 C 87.1094 -71.9238 94.3359 -64.6973 94.3359 -55.7617 C 94.3359 -48.9746 90.1855 -43.1152 84.1797 -40.8203 L 84.1797 -12.1582 C 84.1797 -5.17578 81.4453 2.92969 78.2715 2.92969 C 75 2.92969 72.2656 -5.27344 72.2656 -12.1582 L 72.2656 -40.8691 C 66.3574 -43.1641 62.1582 -48.9746 62.1582 -55.7617 Z M 68.7012 -59.7656 C 68.7012 -56.7871 71.2891 -54.1992 74.2188 -54.1992 C 77.2949 -54.1992 79.7852 -56.7871 79.834 -59.7656 C 79.834 -62.793 77.2949 -65.3809 74.2188 -65.3809 C 71.2891 -65.3809 68.7012 -62.793 68.7012 -59.7656 Z"/>
  </g>
  <g id="Bold-L" transform="matrix(1 0 0 1 2262.88 1556)">
   <path d="M 77.0996 30.7129 C 113.232 30.7129 142.92 0.976562 142.92 -35.1074 C 142.92 -71.2402 113.184 -100.977 77.0508 -100.977 C 40.9668 -100.977 11.2793 -71.2402 11.2793 -35.1074 C 11.2793 0.976562 41.0156 30.7129 77.0996 30.7129 Z M 61.8164 -57.0312 C 61.8164 -65.4297 68.6523 -72.2656 77.0508 -72.3145 C 85.4492 -72.3145 92.334 -65.4785 92.334 -57.0312 C 92.334 -50.3906 88.1348 -44.7266 82.2266 -42.7246 L 82.2266 -12.0117 C 82.2266 -4.44336 79.9805 3.27148 77.0508 3.27148 C 74.1211 3.27148 71.875 -4.54102 71.875 -12.0117 L 71.875 -42.7246 C 66.0156 -44.8242 61.8164 -50.4395 61.8164 -57.0312 Z M 68.0664 -60.8887 C 68.0664 -58.1055 70.459 -55.7129 73.1934 -55.7129 C 76.0742 -55.7129 78.3691 -58.1055 78.3691 -60.8887 C 78.418 -63.6719 76.0742 -66.0645 73.1934 -66.0645 C 70.459 -66.0645 68.0664 -63.6719 68.0664 -60.8887 Z"/>
  </g>
  <g id="Semibold-L" transform="matrix(1 0 0 1 1966.97 1556)">
   <path d="M 76.2695 29.8828 C 111.914 29.8828 141.309 0.488281 141.309 -35.1074 C 141.309 -70.752 111.865 -100.146 76.2695 -100.146 C 40.625 -100.146 11.2793 -70.752 11.2793 -35.1074 C 11.2793 0.488281 40.6738 29.8828 76.2695 29.8828 Z M 61.5234 -57.9102 C 61.5234 -66.0156 68.1152 -72.6074 76.2695 -72.6074 C 84.3262 -72.6074 90.9668 -66.0156 90.9668 -57.9102 C 90.9668 -51.3672 86.7676 -45.8984 80.8594 -44.043 L 80.8594 -11.8652 C 80.8594 -3.90625 79.0039 3.4668 76.2695 3.4668 C 73.4863 3.4668 71.582 -4.05273 71.582 -11.8652 L 71.582 -44.043 C 65.7715 -45.9473 61.5234 -51.416 61.5234 -57.9102 Z M 67.627 -61.6211 C 67.627 -59.0332 69.9219 -56.7383 72.5098 -56.7383 C 75.1953 -56.7383 77.3926 -59.0332 77.3926 -61.6211 C 77.4414 -64.3066 75.1953 -66.5527 72.5098 -66.5527 C 69.9219 -66.5527 67.627 -64.3066 67.627 -61.6211 Z"/>
  </g>
  <g id="Medium-L" transform="matrix(1 0 0 1 1670.87 1556)">
   <path d="M 75.6836 29.248 C 110.938 29.248 140.088 0.146484 140.088 -35.1074 C 140.088 -70.4102 110.889 -99.5117 75.6348 -99.5117 C 40.3809 -99.5117 11.2793 -70.4102 11.2793 -35.1074 C 11.2793 0.146484 40.3809 29.248 75.6836 29.248 Z M 61.377 -58.5449 C 61.377 -66.4062 67.7734 -72.8027 75.6348 -72.8516 C 83.4961 -72.8516 89.8926 -66.4551 89.8926 -58.5449 C 89.8926 -52.1484 85.6934 -46.7285 79.834 -45.0195 L 79.834 -11.7676 C 79.834 -3.51562 78.2227 3.66211 75.6348 3.66211 C 73.0469 3.66211 71.3379 -3.66211 71.3379 -11.7676 L 71.3379 -45.0195 C 65.5762 -46.7773 61.377 -52.1973 61.377 -58.5449 Z M 67.2852 -62.207 C 67.334 -59.7168 69.4824 -57.5195 71.9727 -57.5195 C 74.5605 -57.5195 76.6602 -59.7168 76.6602 -62.207 C 76.709 -64.7461 74.5605 -66.9434 71.9727 -66.9434 C 69.4824 -66.9434 67.2852 -64.7461 67.2852 -62.207 Z"/>
  </g>
  <g id="Regular-L" transform="matrix(1 0 0 1 1374.97 1556)">
   <path d="M 74.8535 28.4668 C 109.668 28.4668 138.477 -0.341797 138.477 -35.1074 C 138.477 -69.9219 109.619 -98.7305 74.8047 -98.7305 C 40.0391 -98.7305 11.2793 -69.9219 11.2793 -35.1074 C 11.2793 -0.341797 40.0879 28.4668 74.8535 28.4668 Z M 61.1328 -59.4238 C 61.1328 -66.9922 67.2852 -73.1445 74.8047 -73.1445 C 82.373 -73.1445 88.5254 -66.9922 88.5254 -59.4238 C 88.5254 -53.125 84.3262 -47.8516 78.5156 -46.3379 L 78.5156 -11.6699 C 78.5156 -3.02734 77.2461 3.90625 74.8047 3.90625 C 72.4121 3.90625 71.0449 -3.17383 71.0449 -11.6699 L 71.0449 -46.3379 C 65.332 -47.9004 61.1328 -53.1738 61.1328 -59.4238 Z M 66.8457 -62.9395 C 66.8945 -60.5957 68.9453 -58.5449 71.2891 -58.5449 C 73.7305 -58.5449 75.6836 -60.5957 75.6836 -62.9395 C 75.7324 -65.3809 73.7305 -67.4316 71.2891 -67.4316 C 68.9453 -67.4316 66.7969 -65.3809 66.8457 -62.9395 Z"/>
  </g>
  <g id="Light-L" transform="matrix(1 0 0 1 1079.18 1556)">
   <path d="M 73.9258 27.5879 C 108.301 27.5879 136.621 -0.732422 136.621 -35.1074 C 136.621 -69.4336 108.252 -97.7539 73.9258 -97.7539 C 39.5508 -97.7539 11.2793 -69.4336 11.2793 -35.1074 C 11.2793 -0.732422 39.5996 27.5879 73.9258 27.5879 Z M 61.084 -60.2539 C 61.084 -67.334 66.8457 -73.0957 73.9258 -73.0957 C 81.0059 -73.0957 86.7188 -67.334 86.7188 -60.2539 C 86.7188 -54.1992 82.5195 -49.1211 76.8066 -47.8516 L 76.8066 -9.17969 C 76.8066 -1.46484 75.6836 3.80859 73.9258 3.80859 C 72.1191 3.80859 70.9961 -1.61133 70.9961 -9.17969 L 70.9961 -47.8516 C 65.332 -49.1699 61.084 -54.1992 61.084 -60.2539 Z M 66.3574 -63.5742 C 66.4062 -61.3281 68.3594 -59.375 70.6055 -59.375 C 72.9004 -59.375 74.7559 -61.3281 74.8047 -63.5742 C 74.8535 -65.918 72.9004 -67.8711 70.6055 -67.8711 C 68.3594 -67.8711 66.3086 -65.918 66.3574 -63.5742 Z"/>
  </g>
  <g id="Thin-L" transform="matrix(1 0 0 1 783.693 1556)">
   <path d="M 72.7051 26.416 C 106.494 26.416 134.18 -1.26953 134.18 -35.0586 C 134.18 -68.7988 106.494 -96.4844 72.7051 -96.4844 C 38.9648 -96.4844 11.2793 -68.7988 11.2793 -35.0586 C 11.2793 -1.26953 38.9648 26.416 72.7051 26.416 Z M 61.084 -61.377 C 61.084 -67.7734 66.2598 -72.998 72.7051 -72.998 C 79.1504 -72.998 84.375 -67.7734 84.375 -61.377 C 84.375 -55.5664 80.127 -50.8301 74.5117 -49.9023 L 74.5117 -5.81055 C 74.5117 0.537109 73.6816 3.75977 72.7051 3.75977 C 71.7773 3.75977 70.8984 0.439453 70.8984 -5.81055 L 70.8984 -49.9023 C 65.332 -50.8301 61.084 -55.5664 61.084 -61.377 Z M 65.7227 -64.4043 C 65.8203 -62.2559 67.627 -60.4492 69.7266 -60.4492 C 71.875 -60.4492 73.5352 -62.2559 73.584 -64.4043 C 73.6816 -66.6016 71.875 -68.4082 69.7266 -68.4082 C 67.627 -68.4082 65.6738 -66.6016 65.7227 -64.4043 Z"/>
  </g>
  <g id="Ultralight-L" transform="matrix(1 0 0 1 487.616 1556)">
   <path d="M 72.1191 25.7812 C 105.566 25.7812 132.91 -1.5625 132.91 -35.0098 C 132.91 -68.5059 105.566 -95.8496 72.1191 -95.8496 C 38.623 -95.8496 11.2793 -68.5059 11.2793 -35.0098 C 11.2793 -1.5625 38.623 25.7812 72.1191 25.7812 Z M 61.0352 -61.9141 C 61.0352 -68.0176 65.9668 -72.9492 72.1191 -72.9492 C 78.2227 -72.9492 83.1543 -68.0176 83.1543 -61.9141 C 83.1543 -56.2988 78.9062 -51.709 73.3887 -50.9766 L 73.3887 -4.15039 C 73.3887 1.5625 72.6074 3.71094 72.1191 3.71094 C 71.582 3.71094 70.8496 1.51367 70.8496 -4.15039 L 70.8496 -50.9766 C 65.332 -51.6602 61.0352 -56.2988 61.0352 -61.9141 Z M 65.4297 -64.8438 C 65.4785 -62.7441 67.2363 -61.0352 69.2871 -61.0352 C 71.3379 -61.0352 72.9004 -62.7441 72.998 -64.8438 C 73.0957 -66.9922 71.3379 -68.7012 69.2871 -68.7012 C 67.2363 -68.7012 65.332 -66.9922 65.4297 -64.8438 Z"/>
  </g>
  <g id="Black-M" transform="matrix(1 0 0 1 2870.97 1126)">
   <path d="M 62.4023 18.5547 C 91.9922 18.5547 116.113 -5.56641 116.113 -35.1562 C 116.113 -64.7461 91.9922 -88.8184 62.4023 -88.8184 C 32.8125 -88.8184 8.74023 -64.7461 8.74023 -35.1562 C 8.74023 -5.56641 32.8125 18.5547 62.4023 18.5547 Z M 48.8281 -49.2188 C 48.8281 -56.6406 54.9316 -62.6953 62.4023 -62.7441 C 69.873 -62.8418 75.9766 -56.7383 75.9766 -49.2188 C 75.9766 -43.7012 72.7539 -38.916 68.0176 -36.7676 L 68.0176 -16.3574 C 68.0176 -12.5 65.0879 -6.29883 62.4023 -6.29883 C 59.668 -6.29883 56.7871 -12.5977 56.7871 -16.3574 L 56.7871 -36.8164 C 52.0996 -38.9648 48.8281 -43.7012 48.8281 -49.2188 Z M 54.1992 -52.4902 C 54.1992 -49.8047 56.4941 -47.5586 59.1309 -47.5586 C 61.8164 -47.5586 64.0625 -49.8047 64.0625 -52.4902 C 64.0625 -55.2246 61.8164 -57.4707 59.1309 -57.4707 C 56.4941 -57.4707 54.1992 -55.2246 54.1992 -52.4902 Z"/>
  </g>
  <g id="Heavy-M" transform="matrix(1 0 0 1 2575.19 1126)">
   <path d="M 61.5234 17.627 C 90.5273 17.627 114.258 -6.10352 114.258 -35.1562 C 114.258 -64.1602 90.5273 -87.8906 61.4746 -87.8906 C 32.4707 -87.8906 8.74023 -64.1602 8.74023 -35.1562 C 8.74023 -6.10352 32.4707 17.627 61.5234 17.627 Z M 48.4863 -50.1953 C 48.4863 -57.3242 54.2969 -63.1348 61.4746 -63.1836 C 68.6035 -63.2324 74.4629 -57.4219 74.4629 -50.1953 C 74.4629 -44.8242 71.2402 -40.1855 66.5527 -38.2324 L 66.5527 -16.8457 C 66.5527 -12.207 64.0625 -5.95703 61.4746 -5.95703 C 58.8867 -5.95703 56.3965 -12.2559 56.3965 -16.8457 L 56.3965 -38.2812 C 51.7578 -40.2344 48.4863 -44.8242 48.4863 -50.1953 Z M 53.7109 -53.418 C 53.7109 -50.9277 55.8105 -48.7793 58.3008 -48.7793 C 60.791 -48.7793 62.8906 -50.9277 62.8906 -53.418 C 62.8906 -55.9082 60.791 -58.0566 58.3008 -58.0566 C 55.8105 -58.0566 53.7109 -55.9082 53.7109 -53.418 Z"/>
  </g>
  <g id="Bold-M" transform="matrix(1 0 0 1 2279.5 1126)">
   <path d="M 60.498 16.6016 C 88.8672 16.6016 112.207 -6.73828 112.207 -35.1562 C 112.207 -63.5742 88.8672 -86.9141 60.4492 -86.9141 C 32.0312 -86.9141 8.74023 -63.5742 8.74023 -35.1562 C 8.74023 -6.73828 32.0801 16.6016 60.498 16.6016 Z M 48.0957 -51.3672 C 48.0957 -58.1543 53.6621 -63.6719 60.4492 -63.7207 C 67.2363 -63.7207 72.8027 -58.2031 72.8027 -51.3672 C 72.8027 -46.0938 69.5801 -41.6016 64.8926 -39.8438 L 64.8926 -17.3828 C 64.8926 -11.8164 62.8906 -5.61523 60.4492 -5.61523 C 57.959 -5.61523 55.957 -11.9141 55.957 -17.3828 L 55.957 -39.8926 C 51.3672 -41.6504 48.0957 -46.1426 48.0957 -51.3672 Z M 53.125 -54.4434 C 53.1738 -52.1484 55.127 -50.1953 57.373 -50.1953 C 59.668 -50.1953 61.6211 -52.1484 61.6211 -54.4434 C 61.6211 -56.7383 59.668 -58.6914 57.373 -58.6914 C 55.127 -58.6914 53.125 -56.7383 53.125 -54.4434 Z"/>
  </g>
  <g id="Semibold-M" transform="matrix(1 0 0 1 1983.5 1126)">
   <path d="M 59.7656 15.8691 C 87.7441 15.8691 110.791 -7.17773 110.791 -35.1562 C 110.791 -63.1348 87.6953 -86.1816 59.7656 -86.1816 C 31.7871 -86.1816 8.74023 -63.1348 8.74023 -35.1562 C 8.74023 -7.17773 31.7871 15.8691 59.7656 15.8691 Z M 47.8516 -52.1484 C 47.8516 -58.6914 53.1738 -64.0137 59.7656 -64.0625 C 66.3086 -64.0625 71.6309 -58.7402 71.6309 -52.1484 C 71.6309 -46.9727 68.4082 -42.5781 63.7695 -40.9668 L 63.7695 -17.7246 C 63.7695 -11.5723 62.1094 -5.32227 59.7656 -5.32227 C 57.373 -5.32227 55.6641 -11.6699 55.6641 -17.7246 L 55.6641 -41.0156 C 51.0742 -42.627 47.8516 -47.0215 47.8516 -52.1484 Z M 52.7344 -55.127 C 52.7832 -52.9785 54.6387 -51.123 56.7383 -51.123 C 58.9355 -51.123 60.7422 -52.9785 60.7422 -55.127 C 60.7422 -57.2754 58.9355 -59.1309 56.7383 -59.1309 C 54.6387 -59.1309 52.7344 -57.2754 52.7344 -55.127 Z"/>
  </g>
  <g id="Medium-M" transform="matrix(1 0 0 1 1687.3 1126)">
   <path d="M 59.2285 15.332 C 86.9141 15.332 109.766 -7.51953 109.766 -35.1562 C 109.766 -62.793 86.8652 -85.6445 59.1797 -85.6445 C 31.543 -85.6445 8.74023 -62.793 8.74023 -35.1562 C 8.74023 -7.51953 31.5918 15.332 59.2285 15.332 Z M 47.6562 -52.7344 C 47.6562 -59.082 52.832 -64.3066 59.1797 -64.3066 C 65.5762 -64.3066 70.752 -59.1309 70.752 -52.7344 C 70.752 -47.6562 67.5293 -43.3105 62.9395 -41.8457 L 62.9395 -18.0176 C 62.9395 -11.377 61.5234 -5.12695 59.1797 -5.12695 C 56.8848 -5.12695 55.4199 -11.4746 55.4199 -18.0176 L 55.4199 -41.8457 C 50.8789 -43.3594 47.6562 -47.6562 47.6562 -52.7344 Z M 52.4414 -55.6641 C 52.4902 -53.6621 54.248 -51.8555 56.25 -51.8555 C 58.3496 -51.8555 60.0586 -53.6621 60.0586 -55.6641 C 60.0586 -57.7148 58.3496 -59.4727 56.25 -59.4727 C 54.248 -59.4727 52.4414 -57.7148 52.4414 -55.6641 Z"/>
  </g>
  <g id="Regular-M" transform="matrix(1 0 0 1 1391.3 1126)">
   <path d="M 58.5449 14.6484 C 85.791 14.6484 108.35 -7.95898 108.35 -35.1562 C 108.35 -62.4023 85.7422 -84.9609 58.4961 -84.9609 C 31.2988 -84.9609 8.74023 -62.4023 8.74023 -35.1562 C 8.74023 -7.95898 31.3477 14.6484 58.5449 14.6484 Z M 47.3633 -53.5156 C 47.3633 -59.6191 52.3438 -64.6484 58.4961 -64.6484 C 64.6484 -64.6484 69.6289 -59.6191 69.6289 -53.5156 C 69.6289 -48.4863 66.3574 -44.2871 61.8164 -42.9199 L 61.8164 -18.4082 C 61.8164 -11.1328 60.7422 -4.88281 58.4961 -4.88281 C 56.2988 -4.88281 55.127 -11.2305 55.127 -18.4082 L 55.127 -42.9199 C 50.6348 -44.3359 47.3633 -48.5352 47.3633 -53.5156 Z M 52.0996 -56.3477 C 52.0996 -54.4922 53.7598 -52.832 55.6152 -52.832 C 57.5684 -52.832 59.1797 -54.4922 59.1797 -56.3477 C 59.1797 -58.3008 57.5684 -59.9609 55.6152 -59.9609 C 53.7598 -59.9609 52.0508 -58.3008 52.0996 -56.3477 Z"/>
  </g>
  <g id="Light-M" transform="matrix(1 0 0 1 1095.42 1126)">
   <path d="M 57.7148 13.8184 C 84.5215 13.8184 106.689 -8.30078 106.689 -35.1562 C 106.689 -61.9629 84.5215 -84.1309 57.666 -84.1309 C 30.8594 -84.1309 8.74023 -61.9629 8.74023 -35.1562 C 8.74023 -8.30078 30.9082 13.8184 57.7148 13.8184 Z M 47.3633 -54.248 C 47.3633 -59.9609 52.002 -64.5996 57.666 -64.5996 C 63.3789 -64.5996 68.0176 -59.9609 68.0176 -54.248 C 68.0176 -49.4629 64.7461 -45.459 60.3027 -44.3359 L 60.3027 -16.1621 C 60.3027 -9.76562 59.3262 -4.93164 57.666 -4.93164 C 56.0059 -4.93164 55.0293 -9.86328 55.0293 -16.1621 L 55.0293 -44.3359 C 50.6348 -45.459 47.3633 -49.4629 47.3633 -54.248 Z M 51.6602 -56.9336 C 51.6602 -55.127 53.2227 -53.5645 55.0293 -53.5645 C 56.8848 -53.5645 58.3496 -55.127 58.3496 -56.9336 C 58.3984 -58.7402 56.8848 -60.3027 55.0293 -60.3027 C 53.2227 -60.3027 51.6113 -58.7402 51.6602 -56.9336 Z"/>
  </g>
  <g id="Thin-M" transform="matrix(1 0 0 1 799.806 1126)">
   <path d="M 56.6406 12.793 C 82.9102 12.793 104.492 -8.78906 104.492 -35.1074 C 104.492 -61.377 82.9102 -82.959 56.5918 -82.959 C 30.3223 -82.959 8.74023 -61.377 8.74023 -35.1074 C 8.74023 -8.78906 30.3223 12.793 56.6406 12.793 Z M 47.3145 -55.2246 C 47.3145 -60.3516 51.4648 -64.502 56.5918 -64.502 C 61.7188 -64.502 65.918 -60.3516 65.918 -55.2246 C 65.918 -50.6836 62.5977 -46.9727 58.252 -46.1914 L 58.252 -13.1836 C 58.252 -7.95898 57.5195 -4.98047 56.5918 -4.98047 C 55.7129 -4.98047 54.9805 -8.00781 54.9805 -13.1836 L 54.9805 -46.1914 C 50.6348 -46.9727 47.3145 -50.6836 47.3145 -55.2246 Z M 51.0742 -57.666 C 51.123 -56.0059 52.5391 -54.541 54.248 -54.541 C 55.9082 -54.541 57.2266 -56.0059 57.2754 -57.666 C 57.373 -59.375 55.9082 -60.8398 54.248 -60.8398 C 52.5391 -60.8398 51.0254 -59.375 51.0742 -57.666 Z"/>
  </g>
  <g id="Ultralight-M" transform="matrix(1 0 0 1 503.656 1126)">
   <path d="M 56.0547 12.2559 C 82.0801 12.2559 103.369 -9.0332 103.369 -35.0586 C 103.369 -61.084 82.0801 -82.373 56.0547 -82.373 C 30.0293 -82.373 8.74023 -61.084 8.74023 -35.0586 C 8.74023 -9.0332 30.0293 12.2559 56.0547 12.2559 Z M 47.3145 -55.7617 C 47.3145 -60.5957 51.2207 -64.502 56.0547 -64.502 C 60.8887 -64.502 64.7949 -60.5957 64.7949 -55.7617 C 64.7949 -51.3184 61.5234 -47.7051 57.2266 -47.1191 L 57.2266 -11.6211 C 57.2266 -7.03125 56.5918 -5.0293 56.0547 -5.0293 C 55.5176 -5.0293 54.9316 -7.08008 54.9316 -11.6211 L 54.9316 -47.1191 C 50.6348 -47.7051 47.3145 -51.3184 47.3145 -55.7617 Z M 50.7812 -58.0566 C 50.8301 -56.4453 52.1973 -55.0781 53.8086 -55.0781 C 55.4199 -55.0781 56.6895 -56.4453 56.7383 -58.0566 C 56.7871 -59.7168 55.4199 -61.084 53.8086 -61.084 C 52.1973 -61.084 50.7324 -59.7168 50.7812 -58.0566 Z"/>
  </g>
  <g id="Black-S" transform="matrix(1 0 0 1 2884.57 696)">
   <path d="M 48.8281 6.83594 C 71.9727 6.83594 90.8203 -12.0117 90.8203 -35.1562 C 90.8203 -58.3008 71.9727 -77.1484 48.8281 -77.1484 C 25.6836 -77.1484 6.83594 -58.3008 6.83594 -35.1562 C 6.83594 -12.0117 25.6836 6.83594 48.8281 6.83594 Z M 38.2324 -46.2402 C 38.2324 -52.0508 42.9688 -56.7871 48.8281 -56.8359 C 54.6387 -56.8848 59.4238 -52.1484 59.4238 -46.2402 C 59.4238 -41.9434 56.8848 -38.1836 53.1738 -36.5234 L 53.1738 -20.5078 C 53.1738 -17.4316 50.9277 -12.5488 48.8281 -12.5488 C 46.6797 -12.5488 44.4336 -17.4805 44.4336 -20.5078 L 44.4336 -36.5723 C 40.7715 -38.2324 38.2324 -41.9434 38.2324 -46.2402 Z M 42.4316 -48.8281 C 42.4316 -46.7285 44.1895 -44.9707 46.2402 -44.9707 C 48.3398 -44.9707 50.0977 -46.7285 50.0977 -48.8281 C 50.0977 -50.9277 48.3398 -52.6855 46.2402 -52.6855 C 44.1895 -52.6855 42.4316 -50.9277 42.4316 -48.8281 Z"/>
  </g>
  <g id="Heavy-S" transform="matrix(1 0 0 1 2588.47 696)">
   <path d="M 48.2422 6.20117 C 70.9961 6.20117 89.5996 -12.4023 89.5996 -35.1562 C 89.5996 -57.9102 70.9961 -76.5625 48.1934 -76.5625 C 25.4395 -76.5625 6.83594 -57.9102 6.83594 -35.1562 C 6.83594 -12.4023 25.4395 6.20117 48.2422 6.20117 Z M 37.9883 -46.9238 C 37.9883 -52.5391 42.5293 -57.1289 48.1934 -57.1777 C 53.8086 -57.2266 58.4473 -52.6367 58.4473 -46.9238 C 58.4473 -42.7246 55.9082 -39.0137 52.2461 -37.5 L 52.2461 -21.1426 C 52.2461 -17.334 50.293 -12.3047 48.1934 -12.3047 C 46.0938 -12.3047 44.1406 -17.3828 44.1406 -21.1426 L 44.1406 -37.5 C 40.5273 -39.0625 37.9883 -42.7246 37.9883 -46.9238 Z M 42.0898 -49.4629 C 42.0898 -47.5098 43.75 -45.8496 45.6543 -45.8496 C 47.6562 -45.8496 49.3164 -47.5098 49.3164 -49.4629 C 49.3164 -51.416 47.6562 -53.0762 45.6543 -53.0762 C 43.75 -53.0762 42.0898 -51.416 42.0898 -49.4629 Z"/>
  </g>
  <g id="Bold-S" transform="matrix(1 0 0 1 2292.44 696)">
   <path d="M 47.5586 5.51758 C 69.873 5.51758 88.2324 -12.8418 88.2324 -35.1562 C 88.2324 -57.5195 69.873 -75.8789 47.5098 -75.8789 C 25.1953 -75.8789 6.83594 -57.5195 6.83594 -35.1562 C 6.83594 -12.8418 25.1953 5.51758 47.5586 5.51758 Z M 37.6465 -47.7051 C 37.6465 -53.125 42.0898 -57.5195 47.5098 -57.5684 C 52.9297 -57.5684 57.373 -53.1738 57.373 -47.7051 C 57.373 -43.5547 54.834 -39.9902 51.1719 -38.5742 L 51.1719 -21.8262 C 51.1719 -17.2363 49.5605 -12.0117 47.5098 -12.0117 C 45.459 -12.0117 43.7988 -17.2852 43.7988 -21.8262 L 43.7988 -38.5742 C 40.2344 -40.0391 37.6465 -43.5547 37.6465 -47.7051 Z M 41.6992 -50.1465 C 41.6992 -48.3887 43.2617 -46.8262 45.0684 -46.8262 C 46.875 -46.8262 48.4375 -48.3887 48.4375 -50.1465 C 48.4375 -52.002 46.875 -53.5645 45.0684 -53.5645 C 43.2617 -53.5645 41.6992 -52.002 41.6992 -50.1465 Z"/>
  </g>
  <g id="Semibold-S" transform="matrix(1 0 0 1 1996.2 696)">
   <path d="M 47.0703 5.0293 C 69.0918 5.0293 87.3047 -13.1348 87.3047 -35.2051 C 87.3047 -57.2266 69.0918 -75.4395 47.0215 -75.4395 C 25 -75.4395 6.83594 -57.2266 6.83594 -35.2051 C 6.83594 -13.1348 25.0488 5.0293 47.0703 5.0293 Z M 37.4512 -48.2422 C 37.4512 -53.5156 41.748 -57.8125 47.0215 -57.8125 C 52.2949 -57.8613 56.6406 -53.5645 56.6406 -48.2422 C 56.6406 -44.1406 54.1016 -40.625 50.4395 -39.3066 L 50.4395 -22.3145 C 50.4395 -17.1387 49.0723 -11.7676 47.0215 -11.7676 C 44.9707 -11.7676 43.6035 -17.2363 43.6035 -22.3145 L 43.6035 -39.3066 C 39.9902 -40.6738 37.4512 -44.1895 37.4512 -48.2422 Z M 41.4551 -50.6348 C 41.4551 -48.9746 42.9199 -47.4609 44.6289 -47.4609 C 46.3867 -47.4609 47.8027 -48.9746 47.8027 -50.6348 C 47.8027 -52.3926 46.3867 -53.8574 44.6289 -53.8574 C 42.9199 -53.8574 41.4551 -52.3926 41.4551 -50.6348 Z"/>
  </g>
  <g id="Medium-S" transform="matrix(1 0 0 1 1699.83 696)">
   <path d="M 46.7285 4.6875 C 68.5547 4.6875 86.6211 -13.3789 86.6211 -35.2051 C 86.6211 -56.9824 68.5059 -75.0977 46.6797 -75.0977 C 24.8535 -75.0977 6.83594 -56.9824 6.83594 -35.2051 C 6.83594 -13.3789 24.9023 4.6875 46.7285 4.6875 Z M 37.3047 -48.6816 C 37.3047 -53.8086 41.5039 -58.0078 46.6797 -58.0078 C 51.8555 -58.0566 56.0547 -53.8086 56.0547 -48.6816 C 56.0547 -44.5801 53.5156 -41.1133 49.9023 -39.8438 L 49.9023 -22.6562 C 49.9023 -17.0898 48.7305 -11.6211 46.6797 -11.6211 C 44.6289 -11.6211 43.4082 -17.1875 43.4082 -22.6562 L 43.4082 -39.8926 C 39.8438 -41.1621 37.3047 -44.6289 37.3047 -48.6816 Z M 41.2598 -51.0254 C 41.2598 -49.4141 42.6758 -47.998 44.2871 -47.998 C 45.9473 -47.998 47.3633 -49.4141 47.3633 -51.0254 C 47.3633 -52.6855 45.9473 -54.1016 44.2871 -54.1016 C 42.6758 -54.1016 41.2598 -52.6855 41.2598 -51.0254 Z"/>
  </g>
  <g id="Regular-S" transform="matrix(1 0 0 1 1403.58 696)">
   <path d="M 46.2402 4.19922 C 67.7734 4.19922 85.6934 -13.6719 85.6934 -35.2051 C 85.6934 -56.7383 67.7246 -74.6094 46.1914 -74.6094 C 24.707 -74.6094 6.83594 -56.7383 6.83594 -35.2051 C 6.83594 -13.6719 24.7559 4.19922 46.2402 4.19922 Z M 37.1094 -49.1699 C 37.1094 -54.1992 41.2109 -58.3008 46.1914 -58.3008 C 51.2207 -58.3008 55.3223 -54.1992 55.3223 -49.1699 C 55.3223 -45.166 52.7832 -41.7969 49.1699 -40.5762 L 49.1699 -23.1445 C 49.1699 -17.041 48.2422 -11.4258 46.1914 -11.4258 C 44.1895 -11.4258 43.2129 -17.1387 43.2129 -23.1445 L 43.2129 -40.5762 C 39.6484 -41.8457 37.1094 -45.2148 37.1094 -49.1699 Z M 41.0156 -51.5137 C 41.0156 -50 42.334 -48.6328 43.8477 -48.6328 C 45.459 -48.6328 46.7285 -50 46.7285 -51.5137 C 46.7285 -53.0762 45.459 -54.3945 43.8477 -54.3945 C 42.334 -54.3945 41.0156 -53.0762 41.0156 -51.5137 Z"/>
  </g>
  <g id="Light-S" transform="matrix(1 0 0 1 1107.6 696)">
   <path d="M 45.5078 3.51562 C 66.6992 3.51562 84.2285 -14.0137 84.2285 -35.1562 C 84.2285 -56.3477 66.6504 -73.877 45.5078 -73.877 C 24.3164 -73.877 6.83594 -56.3477 6.83594 -35.1562 C 6.83594 -14.0137 24.3652 3.51562 45.5078 3.51562 Z M 37.1094 -49.8535 C 37.1094 -54.4922 40.8691 -58.252 45.5078 -58.252 C 50.1465 -58.252 53.9062 -54.4922 53.9062 -49.8535 C 53.9062 -45.9961 51.3184 -42.7734 47.8027 -41.8457 L 47.8027 -21.1426 C 47.8027 -15.8203 47.0215 -11.4746 45.5078 -11.4746 C 43.9941 -11.4746 43.1641 -15.8691 43.1641 -21.1426 L 43.1641 -41.8457 C 39.6484 -42.8223 37.1094 -46.0449 37.1094 -49.8535 Z M 40.625 -52.002 C 40.625 -50.5859 41.8945 -49.3164 43.3105 -49.3164 C 44.8242 -49.3164 45.9961 -50.5859 46.0449 -52.002 C 46.0449 -53.4668 44.8242 -54.7363 43.3105 -54.7363 C 41.8945 -54.7363 40.5762 -53.4668 40.625 -52.002 Z"/>
  </g>
  <g id="Thin-S" transform="matrix(1 0 0 1 811.867 696)">
   <path d="M 44.5801 2.58789 C 65.2832 2.58789 82.2754 -14.4043 82.2754 -35.1562 C 82.2754 -55.8594 65.2344 -72.8516 44.5312 -72.8516 C 23.8281 -72.8516 6.83594 -55.8594 6.83594 -35.1562 C 6.83594 -14.4043 23.877 2.58789 44.5801 2.58789 Z M 37.0605 -50.7324 C 37.0605 -54.834 40.4297 -58.2031 44.5312 -58.2031 C 48.6816 -58.2031 52.002 -54.834 52.002 -50.7324 C 52.002 -47.1191 49.4629 -44.1406 45.9961 -43.457 L 45.9961 -18.5059 C 45.9961 -14.209 45.4102 -11.5234 44.5312 -11.5234 C 43.7012 -11.5234 43.0664 -14.2578 43.0664 -18.5059 L 43.0664 -43.457 C 39.6484 -44.1406 37.0605 -47.1191 37.0605 -50.7324 Z M 40.1367 -52.6367 C 40.1367 -51.3184 41.3086 -50.1953 42.627 -50.1953 C 43.9941 -50.1953 45.0684 -51.3184 45.0684 -52.6367 C 45.1172 -54.0527 43.9941 -55.1758 42.627 -55.1758 C 41.3086 -55.1758 40.0879 -54.0527 40.1367 -52.6367 Z"/>
  </g>
  <g id="Ultralight-S" transform="matrix(1 0 0 1 515.644 696)">
   <path d="M 44.043 2.09961 C 64.502 2.09961 81.2988 -14.6484 81.2988 -35.1074 C 81.2988 -55.5664 64.502 -72.3145 44.043 -72.3145 C 23.584 -72.3145 6.83594 -55.5664 6.83594 -35.1074 C 6.83594 -14.6484 23.584 2.09961 44.043 2.09961 Z M 37.0605 -51.1719 C 37.0605 -55.0293 40.1855 -58.1543 44.043 -58.1543 C 47.9492 -58.1543 51.0742 -55.0293 51.0742 -51.1719 C 51.0742 -47.6562 48.4863 -44.8242 45.0684 -44.2871 L 45.0684 -17.1387 C 45.0684 -13.3789 44.5801 -11.5723 44.043 -11.5723 C 43.5547 -11.5723 43.0176 -13.4277 43.0176 -17.1387 L 43.0176 -44.2871 C 39.6484 -44.8242 37.0605 -47.6562 37.0605 -51.1719 Z M 39.8438 -52.9785 C 39.8926 -51.709 40.9668 -50.6348 42.2852 -50.6348 C 43.5547 -50.6348 44.5312 -51.709 44.5801 -52.9785 C 44.6289 -54.3457 43.5547 -55.4199 42.2852 -55.4199 C 40.9668 -55.4199 39.7949 -54.3457 39.8438 -52.9785 Z"/>
  </g>
 </g>
</svg>
