<?xml version="1.0" encoding="UTF-8"?>
<!--Generator: Apple Native CoreSVG 123-->
<!DOCTYPE svg
PUBLIC "-//W3C//DTD SVG 1.1//EN"
       "http://www.w3.org/Graphics/SVG/1.1/DTD/svg11.dtd">
<svg version="1.1" xmlns="http://www.w3.org/2000/svg" xmlns:xlink="http://www.w3.org/1999/xlink" width="3300" height="2200">
 <!--glyph: "uni10025D.medium", point size: 100.000000, font version: "Version 15.0d7e11", template writer version: "5"-->
 <g id="Notes">
  <rect height="2200" id="artboard" style="fill:white;opacity:1" width="3300" x="0" y="0"/>
  <line id="" style="fill:none;stroke:black;opacity:1;stroke-width:0.5;" x1="263" x2="3036" y1="292" y2="292"/>
  <text style="stroke:none;fill:black;font-family:-apple-system,&quot;SF Pro Display&quot;,&quot;SF Pro Text&quot;,Helvetica,sans-serif;font-weight:bold;" transform="matrix(1 0 0 1 263 322)">Weight/Scale Variations</text>
  <text style="stroke:none;fill:black;font-family:-apple-system,&quot;SF Pro Display&quot;,&quot;SF Pro Text&quot;,Helvetica,sans-serif;text-anchor:middle;" transform="matrix(1 0 0 1 559.711 322)">Ultralight</text>
  <text style="stroke:none;fill:black;font-family:-apple-system,&quot;SF Pro Display&quot;,&quot;SF Pro Text&quot;,Helvetica,sans-serif;text-anchor:middle;" transform="matrix(1 0 0 1 856.422 322)">Thin</text>
  <text style="stroke:none;fill:black;font-family:-apple-system,&quot;SF Pro Display&quot;,&quot;SF Pro Text&quot;,Helvetica,sans-serif;text-anchor:middle;" transform="matrix(1 0 0 1 1153.13 322)">Light</text>
  <text style="stroke:none;fill:black;font-family:-apple-system,&quot;SF Pro Display&quot;,&quot;SF Pro Text&quot;,Helvetica,sans-serif;text-anchor:middle;" transform="matrix(1 0 0 1 1449.84 322)">Regular</text>
  <text style="stroke:none;fill:black;font-family:-apple-system,&quot;SF Pro Display&quot;,&quot;SF Pro Text&quot;,Helvetica,sans-serif;text-anchor:middle;" transform="matrix(1 0 0 1 1746.56 322)">Medium</text>
  <text style="stroke:none;fill:black;font-family:-apple-system,&quot;SF Pro Display&quot;,&quot;SF Pro Text&quot;,Helvetica,sans-serif;text-anchor:middle;" transform="matrix(1 0 0 1 2043.27 322)">Semibold</text>
  <text style="stroke:none;fill:black;font-family:-apple-system,&quot;SF Pro Display&quot;,&quot;SF Pro Text&quot;,Helvetica,sans-serif;text-anchor:middle;" transform="matrix(1 0 0 1 2339.98 322)">Bold</text>
  <text style="stroke:none;fill:black;font-family:-apple-system,&quot;SF Pro Display&quot;,&quot;SF Pro Text&quot;,Helvetica,sans-serif;text-anchor:middle;" transform="matrix(1 0 0 1 2636.69 322)">Heavy</text>
  <text style="stroke:none;fill:black;font-family:-apple-system,&quot;SF Pro Display&quot;,&quot;SF Pro Text&quot;,Helvetica,sans-serif;text-anchor:middle;" transform="matrix(1 0 0 1 2933.4 322)">Black</text>
  <line id="" style="fill:none;stroke:black;opacity:1;stroke-width:0.5;" x1="263" x2="3036" y1="1903" y2="1903"/>
  <g id="" transform="matrix(1 0 0 1 263 1933)">
   <path d="M 9.24805 0.830078 C 13.5547 0.830078 17.1387 -2.74414 17.1387 -7.05078 C 17.1387 -11.3574 13.5449 -14.9316 9.23828 -14.9316 C 4.94141 -14.9316 1.36719 -11.3574 1.36719 -7.05078 C 1.36719 -2.74414 4.95117 0.830078 9.24805 0.830078 Z M 9.24805 -0.654297 C 5.70312 -0.654297 2.87109 -3.49609 2.87109 -7.05078 C 2.87109 -10.6055 5.69336 -13.4473 9.23828 -13.4473 C 12.793 -13.4473 15.6348 -10.6055 15.6445 -7.05078 C 15.6543 -3.49609 12.8027 -0.654297 9.24805 -0.654297 Z M 9.22852 -3.42773 C 9.69727 -3.42773 9.9707 -3.74023 9.9707 -4.25781 L 9.9707 -6.31836 L 12.1973 -6.31836 C 12.6953 -6.31836 13.0371 -6.57227 13.0371 -7.04102 C 13.0371 -7.51953 12.7148 -7.7832 12.1973 -7.7832 L 9.9707 -7.7832 L 9.9707 -10.0098 C 9.9707 -10.5273 9.69727 -10.8496 9.22852 -10.8496 C 8.75977 -10.8496 8.50586 -10.5078 8.50586 -10.0098 L 8.50586 -7.7832 L 6.29883 -7.7832 C 5.78125 -7.7832 5.44922 -7.51953 5.44922 -7.04102 C 5.44922 -6.57227 5.80078 -6.31836 6.29883 -6.31836 L 8.50586 -6.31836 L 8.50586 -4.25781 C 8.50586 -3.75977 8.75977 -3.42773 9.22852 -3.42773 Z"/>
  </g>
  <g id="" transform="matrix(1 0 0 1 281.506 1933)">
   <path d="M 11.709 2.91016 C 17.1582 2.91016 21.6699 -1.60156 21.6699 -7.05078 C 21.6699 -12.4902 17.1484 -17.0117 11.6992 -17.0117 C 6.25977 -17.0117 1.74805 -12.4902 1.74805 -7.05078 C 1.74805 -1.60156 6.26953 2.91016 11.709 2.91016 Z M 11.709 1.25 C 7.09961 1.25 3.41797 -2.44141 3.41797 -7.05078 C 3.41797 -11.6504 7.08984 -15.3516 11.6992 -15.3516 C 16.3086 -15.3516 20 -11.6504 20.0098 -7.05078 C 20.0195 -2.44141 16.3184 1.25 11.709 1.25 Z M 11.6895 -2.41211 C 12.207 -2.41211 12.5195 -2.77344 12.5195 -3.33984 L 12.5195 -6.23047 L 15.5762 -6.23047 C 16.123 -6.23047 16.5039 -6.51367 16.5039 -7.03125 C 16.5039 -7.55859 16.1426 -7.86133 15.5762 -7.86133 L 12.5195 -7.86133 L 12.5195 -10.9277 C 12.5195 -11.5039 12.207 -11.8555 11.6895 -11.8555 C 11.1719 -11.8555 10.8789 -11.4844 10.8789 -10.9277 L 10.8789 -7.86133 L 7.83203 -7.86133 C 7.26562 -7.86133 6.89453 -7.55859 6.89453 -7.03125 C 6.89453 -6.51367 7.28516 -6.23047 7.83203 -6.23047 L 10.8789 -6.23047 L 10.8789 -3.33984 C 10.8789 -2.79297 11.1719 -2.41211 11.6895 -2.41211 Z"/>
  </g>
  <g id="" transform="matrix(1 0 0 1 304.924 1933)">
   <path d="M 14.9707 5.67383 C 21.9336 5.67383 27.6953 -0.078125 27.6953 -7.04102 C 27.6953 -14.0039 21.9238 -19.7559 14.9609 -19.7559 C 8.00781 -19.7559 2.25586 -14.0039 2.25586 -7.04102 C 2.25586 -0.078125 8.01758 5.67383 14.9707 5.67383 Z M 14.9707 3.85742 C 8.93555 3.85742 4.08203 -1.00586 4.08203 -7.04102 C 4.08203 -13.0762 8.92578 -17.9395 14.9609 -17.9395 C 21.0059 -17.9395 25.8594 -13.0762 25.8691 -7.04102 C 25.8789 -1.00586 21.0156 3.85742 14.9707 3.85742 Z M 14.9512 -1.06445 C 15.5176 -1.06445 15.8691 -1.45508 15.8691 -2.06055 L 15.8691 -6.13281 L 20.1074 -6.13281 C 20.6934 -6.13281 21.1133 -6.46484 21.1133 -7.02148 C 21.1133 -7.59766 20.7227 -7.93945 20.1074 -7.93945 L 15.8691 -7.93945 L 15.8691 -12.1875 C 15.8691 -12.8027 15.5176 -13.1934 14.9512 -13.1934 C 14.3848 -13.1934 14.0625 -12.7832 14.0625 -12.1875 L 14.0625 -7.93945 L 9.83398 -7.93945 C 9.21875 -7.93945 8.80859 -7.59766 8.80859 -7.02148 C 8.80859 -6.46484 9.23828 -6.13281 9.83398 -6.13281 L 14.0625 -6.13281 L 14.0625 -2.06055 C 14.0625 -1.47461 14.3848 -1.06445 14.9512 -1.06445 Z"/>
  </g>
  <text style="stroke:none;fill:black;font-family:-apple-system,&quot;SF Pro Display&quot;,&quot;SF Pro Text&quot;,Helvetica,sans-serif;font-weight:bold;" transform="matrix(1 0 0 1 263 1953)">Design Variations</text>
  <text style="stroke:none;fill:black;font-family:-apple-system,&quot;SF Pro Display&quot;,&quot;SF Pro Text&quot;,Helvetica,sans-serif;" transform="matrix(1 0 0 1 263 1971)">Symbols are supported in up to nine weights and three scales.</text>
  <text style="stroke:none;fill:black;font-family:-apple-system,&quot;SF Pro Display&quot;,&quot;SF Pro Text&quot;,Helvetica,sans-serif;" transform="matrix(1 0 0 1 263 1989)">For optimal layout with text and other symbols, vertically align</text>
  <text style="stroke:none;fill:black;font-family:-apple-system,&quot;SF Pro Display&quot;,&quot;SF Pro Text&quot;,Helvetica,sans-serif;" transform="matrix(1 0 0 1 263 2007)">symbols with the adjacent text.</text>
  <rect height="14" id="" style="fill:#00AEEF;stroke:none;opacity:0.4;" width="3" x="776" y="1919"/>
  <g id="" transform="matrix(1 0 0 1 779 1933)">
   <path d="M 10.5273 0 L 12.373 0 L 7.17773 -14.0918 L 5.43945 -14.0918 L 0.244141 0 L 2.08984 0 L 3.50586 -4.0332 L 9.11133 -4.0332 Z M 6.2793 -11.9531 L 6.33789 -11.9531 L 8.59375 -5.52734 L 4.02344 -5.52734 Z"/>
  </g>
  <rect height="14" id="" style="fill:#00AEEF;stroke:none;opacity:0.4;" width="3" x="791.617" y="1919"/>
  <text style="stroke:none;fill:black;font-family:-apple-system,&quot;SF Pro Display&quot;,&quot;SF Pro Text&quot;,Helvetica,sans-serif;font-weight:bold;" transform="matrix(1 0 0 1 776 1953)">Margins</text>
  <text style="stroke:none;fill:black;font-family:-apple-system,&quot;SF Pro Display&quot;,&quot;SF Pro Text&quot;,Helvetica,sans-serif;" transform="matrix(1 0 0 1 776 1971)">Leading and trailing margins on the left and right side of each symbol</text>
  <text style="stroke:none;fill:black;font-family:-apple-system,&quot;SF Pro Display&quot;,&quot;SF Pro Text&quot;,Helvetica,sans-serif;" transform="matrix(1 0 0 1 776 1989)">can be adjusted by modifying the width of the blue rectangles.</text>
  <text style="stroke:none;fill:black;font-family:-apple-system,&quot;SF Pro Display&quot;,&quot;SF Pro Text&quot;,Helvetica,sans-serif;" transform="matrix(1 0 0 1 776 2007)">Modifications are automatically applied proportionally to all</text>
  <text style="stroke:none;fill:black;font-family:-apple-system,&quot;SF Pro Display&quot;,&quot;SF Pro Text&quot;,Helvetica,sans-serif;" transform="matrix(1 0 0 1 776 2025)">scales and weights.</text>
  <g id="" transform="matrix(1 0 0 1 1289 1933)">
   <path d="M 2.83203 3.11523 L 4.375 4.6582 C 5.22461 5.48828 6.19141 5.41992 7.06055 4.46289 L 17.2754 -6.66016 C 17.7051 -6.36719 18.0957 -6.37695 18.5645 -6.47461 L 19.6094 -6.68945 L 20.3027 -5.99609 L 20.2539 -5.47852 C 20.1855 -4.95117 20.3516 -4.53125 20.8496 -4.0332 L 21.6602 -3.22266 C 22.168 -2.71484 22.8223 -2.68555 23.3008 -3.16406 L 26.5527 -6.41602 C 27.0312 -6.89453 27.0117 -7.54883 26.5039 -8.05664 L 25.6836 -8.87695 C 25.1855 -9.375 24.7754 -9.55078 24.2383 -9.47266 L 23.7109 -9.41406 L 23.0566 -10.0781 L 23.3398 -11.2207 C 23.4863 -11.7871 23.3398 -12.2559 22.7148 -12.8613 L 20.3027 -15.2539 C 16.7578 -18.7793 12.2266 -18.6719 9.11133 -15.5371 C 8.69141 -15.1074 8.64258 -14.5215 8.91602 -14.0918 C 9.15039 -13.7207 9.62891 -13.4961 10.2734 -13.6621 C 11.7871 -14.043 13.3008 -13.9258 14.7852 -12.9199 L 14.1602 -11.3379 C 13.9258 -10.752 13.9453 -10.2734 14.1797 -9.83398 L 3.01758 0.439453 C 2.08008 1.30859 1.97266 2.25586 2.83203 3.11523 Z M 10.6738 -15.1465 C 13.3398 -17.1387 16.6504 -16.8262 19.0527 -14.4141 L 21.6797 -11.8066 C 21.9141 -11.5723 21.9434 -11.3867 21.8848 -11.0938 L 21.5039 -9.53125 L 23.0762 -7.95898 L 24.043 -8.04688 C 24.3262 -8.07617 24.4141 -8.05664 24.6387 -7.83203 L 25.2637 -7.20703 L 22.5098 -4.46289 L 21.8848 -5.07812 C 21.6602 -5.30273 21.6406 -5.40039 21.6699 -5.68359 L 21.7578 -6.64062 L 20.1953 -8.20312 L 18.5742 -7.89062 C 18.291 -7.83203 18.1445 -7.83203 17.9102 -8.07617 L 15.7324 -10.2539 C 15.5078 -10.4883 15.4785 -10.625 15.6055 -10.9473 L 16.5527 -13.2227 C 14.9512 -14.7559 12.8418 -15.6055 10.8008 -14.9512 C 10.7129 -14.9219 10.6445 -14.9414 10.6152 -14.9805 C 10.5859 -15.0293 10.5859 -15.0781 10.6738 -15.1465 Z M 4.10156 2.41211 C 3.61328 1.91406 3.78906 1.61133 4.12109 1.30859 L 15.0781 -8.80859 L 16.3086 -7.57812 L 6.15234 3.34961 C 5.84961 3.68164 5.46875 3.7793 5.06836 3.37891 Z"/>
  </g>
  <text style="stroke:none;fill:black;font-family:-apple-system,&quot;SF Pro Display&quot;,&quot;SF Pro Text&quot;,Helvetica,sans-serif;font-weight:bold;" transform="matrix(1 0 0 1 1289 1953)">Exporting</text>
  <text style="stroke:none;fill:black;font-family:-apple-system,&quot;SF Pro Display&quot;,&quot;SF Pro Text&quot;,Helvetica,sans-serif;" transform="matrix(1 0 0 1 1289 1971)">Symbols should be outlined when exporting to ensure the</text>
  <text style="stroke:none;fill:black;font-family:-apple-system,&quot;SF Pro Display&quot;,&quot;SF Pro Text&quot;,Helvetica,sans-serif;" transform="matrix(1 0 0 1 1289 1989)">design is preserved when submitting to Xcode.</text>
  <text id="template-version" style="stroke:none;fill:black;font-family:-apple-system,&quot;SF Pro Display&quot;,&quot;SF Pro Text&quot;,Helvetica,sans-serif;text-anchor:end;" transform="matrix(1 0 0 1 3036 1933)">Template v.1.0</text>
  <text style="stroke:none;fill:black;font-family:-apple-system,&quot;SF Pro Display&quot;,&quot;SF Pro Text&quot;,Helvetica,sans-serif;text-anchor:end;" transform="matrix(1 0 0 1 3036 1951)">Generated from book.circle.fill</text>
  <text style="stroke:none;fill:black;font-family:-apple-system,&quot;SF Pro Display&quot;,&quot;SF Pro Text&quot;,Helvetica,sans-serif;text-anchor:end;" transform="matrix(1 0 0 1 3036 1969)">Typeset at 100 points</text>
  <text style="stroke:none;fill:black;font-family:-apple-system,&quot;SF Pro Display&quot;,&quot;SF Pro Text&quot;,Helvetica,sans-serif;" transform="matrix(1 0 0 1 263 726)">Small</text>
  <text style="stroke:none;fill:black;font-family:-apple-system,&quot;SF Pro Display&quot;,&quot;SF Pro Text&quot;,Helvetica,sans-serif;" transform="matrix(1 0 0 1 263 1156)">Medium</text>
  <text style="stroke:none;fill:black;font-family:-apple-system,&quot;SF Pro Display&quot;,&quot;SF Pro Text&quot;,Helvetica,sans-serif;" transform="matrix(1 0 0 1 263 1586)">Large</text>
 </g>
 <g id="Guides">
  <g id="H-reference" style="fill:#27AAE1;stroke:none;" transform="matrix(1 0 0 1 339 696)">
   <path d="M 54.9316 0 L 57.666 0 L 30.5664 -70.459 L 28.0762 -70.459 L 0.976562 0 L 3.66211 0 L 12.9395 -24.4629 L 45.7031 -24.4629 Z M 29.1992 -67.0898 L 29.4434 -67.0898 L 44.8242 -26.709 L 13.8184 -26.709 Z"/>
  </g>
  <line id="Baseline-S" style="fill:none;stroke:#27AAE1;opacity:1;stroke-width:0.577;" x1="263" x2="3036" y1="696" y2="696"/>
  <line id="Capline-S" style="fill:none;stroke:#27AAE1;opacity:1;stroke-width:0.577;" x1="263" x2="3036" y1="625.541" y2="625.541"/>
  <g id="H-reference" style="fill:#27AAE1;stroke:none;" transform="matrix(1 0 0 1 339 1126)">
   <path d="M 54.9316 0 L 57.666 0 L 30.5664 -70.459 L 28.0762 -70.459 L 0.976562 0 L 3.66211 0 L 12.9395 -24.4629 L 45.7031 -24.4629 Z M 29.1992 -67.0898 L 29.4434 -67.0898 L 44.8242 -26.709 L 13.8184 -26.709 Z"/>
  </g>
  <line id="Baseline-M" style="fill:none;stroke:#27AAE1;opacity:1;stroke-width:0.577;" x1="263" x2="3036" y1="1126" y2="1126"/>
  <line id="Capline-M" style="fill:none;stroke:#27AAE1;opacity:1;stroke-width:0.577;" x1="263" x2="3036" y1="1055.54" y2="1055.54"/>
  <g id="H-reference" style="fill:#27AAE1;stroke:none;" transform="matrix(1 0 0 1 339 1556)">
   <path d="M 54.9316 0 L 57.666 0 L 30.5664 -70.459 L 28.0762 -70.459 L 0.976562 0 L 3.66211 0 L 12.9395 -24.4629 L 45.7031 -24.4629 Z M 29.1992 -67.0898 L 29.4434 -67.0898 L 44.8242 -26.709 L 13.8184 -26.709 Z"/>
  </g>
  <line id="Baseline-L" style="fill:none;stroke:#27AAE1;opacity:1;stroke-width:0.577;" x1="263" x2="3036" y1="1556" y2="1556"/>
  <line id="Capline-L" style="fill:none;stroke:#27AAE1;opacity:1;stroke-width:0.577;" x1="263" x2="3036" y1="1485.54" y2="1485.54"/>
  <rect height="119.336" id="left-margin" style="fill:#00AEEF;stroke:none;opacity:0.4;" width="8.74023" x="1391.3" y="1030.79"/>
  <rect height="119.336" id="right-margin" style="fill:#00AEEF;stroke:none;opacity:0.4;" width="8.74023" x="1499.65" y="1030.79"/>
 </g>
 <g id="Symbols">
  <g id="Black-L" transform="matrix(1 0 0 1 2854.05 1556)">
   <path d="M 79.3457 32.9102 C 116.748 32.9102 147.412 2.29492 147.412 -35.1074 C 147.412 -72.5586 116.748 -103.174 79.2969 -103.174 C 41.8945 -103.174 11.2793 -72.5586 11.2793 -35.1074 C 11.2793 2.29492 41.9434 32.9102 79.3457 32.9102 Z M 65.5273 -12.207 C 61.1328 -12.207 57.2266 -10.6934 55.4688 -9.47266 C 54.1504 -8.64258 53.125 -8.10547 51.3672 -8.10547 C 48.6816 -8.10547 46.4355 -9.76562 46.4355 -13.7695 L 46.4355 -55.2734 C 49.1211 -60.0586 55.127 -64.1602 63.3789 -64.1602 C 68.9453 -64.1602 74.0234 -61.5723 76.5137 -57.8125 L 76.5137 -8.64258 C 76.123 -8.93555 75.0488 -9.61914 74.4141 -10.0098 C 72.8027 -10.9375 69.873 -12.207 65.5273 -12.207 Z M 93.0664 -12.207 C 88.7695 -12.207 85.8887 -10.9375 84.2773 -10.0098 C 83.6426 -9.61914 82.5684 -8.88672 82.1777 -8.59375 L 82.1777 -57.8125 C 84.668 -61.5723 89.6484 -64.1602 95.2148 -64.1602 C 103.467 -64.1602 109.521 -60.0586 112.158 -55.2734 L 112.158 -13.7695 C 112.158 -9.66797 109.912 -8.10547 107.227 -8.10547 C 105.469 -8.10547 104.395 -8.64258 103.125 -9.47266 C 101.416 -10.6934 97.4609 -12.207 93.0664 -12.207 Z"/>
  </g>
  <g id="Heavy-L" transform="matrix(1 0 0 1 2558.39 1556)">
   <path d="M 78.2715 31.8848 C 115.088 31.8848 145.312 1.66016 145.312 -35.1074 C 145.312 -71.9238 115.039 -102.148 78.2715 -102.148 C 41.4551 -102.148 11.2793 -71.9238 11.2793 -35.1074 C 11.2793 1.66016 41.5039 31.8848 78.2715 31.8848 Z M 63.8672 -11.8652 C 58.8867 -11.8652 54.6875 -10.1074 52.9297 -8.74023 C 51.7578 -7.95898 50.7812 -7.4707 49.1699 -7.4707 C 46.7773 -7.4707 44.8242 -8.88672 44.8242 -12.4023 L 44.8242 -55.8105 C 47.2656 -60.4492 53.6621 -64.502 61.9141 -64.502 C 67.8711 -64.502 73.1445 -61.7676 75.5859 -58.0078 L 75.5859 -7.95898 C 75.1953 -8.20312 74.0723 -8.93555 73.4863 -9.27734 C 71.8262 -10.2539 68.7012 -11.8652 63.8672 -11.8652 Z M 92.627 -11.8652 C 87.8418 -11.8652 84.7168 -10.3027 83.1055 -9.27734 C 82.4707 -8.93555 81.3965 -8.1543 81.0059 -7.91016 L 81.0059 -58.0078 C 83.4473 -61.7676 88.623 -64.502 94.5801 -64.502 C 102.832 -64.502 109.229 -60.4492 111.67 -55.8105 L 111.67 -12.4023 C 111.67 -8.83789 109.717 -7.4707 107.324 -7.4707 C 105.713 -7.4707 104.688 -7.95898 103.564 -8.74023 C 101.855 -10.1074 97.6562 -11.8652 92.627 -11.8652 Z"/>
  </g>
  <g id="Bold-L" transform="matrix(1 0 0 1 2262.88 1556)">
   <path d="M 77.0996 30.7129 C 113.232 30.7129 142.92 0.976562 142.92 -35.1074 C 142.92 -71.2402 113.184 -100.977 77.0508 -100.977 C 40.9668 -100.977 11.2793 -71.2402 11.2793 -35.1074 C 11.2793 0.976562 41.0156 30.7129 77.0996 30.7129 Z M 61.9629 -11.5234 C 56.3477 -11.5234 51.9043 -9.47266 50.0977 -7.91016 C 49.1211 -7.22656 48.1934 -6.73828 46.7773 -6.73828 C 44.7266 -6.73828 43.0176 -7.95898 43.0176 -10.9375 L 43.0176 -56.3965 C 45.2637 -60.8398 52.0508 -64.8438 60.2539 -64.8438 C 66.6504 -64.8438 72.168 -62.0117 74.5117 -58.2031 L 74.5117 -7.22656 C 74.1699 -7.37305 72.9492 -8.1543 72.4121 -8.49609 C 70.7031 -9.52148 67.3828 -11.5234 61.9629 -11.5234 Z M 92.1387 -11.5234 C 86.8164 -11.5234 83.4473 -9.57031 81.7871 -8.49609 C 81.2012 -8.10547 80.0781 -7.32422 79.6875 -7.12891 L 79.6875 -58.2031 C 82.0801 -62.0117 87.5 -64.8438 93.8965 -64.8438 C 102.1 -64.8438 108.887 -60.8398 111.133 -56.3965 L 111.133 -10.9375 C 111.133 -7.91016 109.424 -6.73828 107.373 -6.73828 C 105.908 -6.73828 105.029 -7.22656 104.053 -7.91016 C 102.295 -9.47266 97.8027 -11.5234 92.1387 -11.5234 Z"/>
  </g>
  <g id="Semibold-L" transform="matrix(1 0 0 1 1966.97 1556)">
   <path d="M 76.2695 29.8828 C 111.914 29.8828 141.309 0.488281 141.309 -35.1074 C 141.309 -70.752 111.865 -100.146 76.2695 -100.146 C 40.625 -100.146 11.2793 -70.752 11.2793 -35.1074 C 11.2793 0.488281 40.6738 29.8828 76.2695 29.8828 Z M 60.6934 -11.2793 C 54.5898 -11.2793 49.9512 -8.98438 48.1445 -7.37305 C 47.2656 -6.68945 46.4355 -6.25 45.0684 -6.25 C 43.2617 -6.25 41.7969 -7.27539 41.7969 -9.86328 L 41.7969 -56.7871 C 43.8477 -61.1328 50.9277 -65.1367 59.1309 -65.1367 C 65.8203 -65.1367 71.4844 -62.1582 73.7793 -58.3496 L 73.7793 -6.68945 C 73.4375 -6.83594 72.2168 -7.61719 71.6797 -7.91016 C 69.9707 -9.0332 66.4551 -11.2793 60.6934 -11.2793 Z M 91.8457 -11.2793 C 86.084 -11.2793 82.5684 -9.08203 80.9082 -7.91016 C 80.3223 -7.56836 79.1504 -6.73828 78.8086 -6.64062 L 78.8086 -58.3496 C 81.1523 -62.1582 86.7188 -65.1367 93.3594 -65.1367 C 101.611 -65.1367 108.691 -61.1328 110.742 -56.7871 L 110.742 -9.86328 C 110.742 -7.27539 109.277 -6.25 107.422 -6.25 C 106.104 -6.25 105.225 -6.68945 104.395 -7.37305 C 102.588 -8.98438 97.9492 -11.2793 91.8457 -11.2793 Z"/>
  </g>
  <g id="Medium-L" transform="matrix(1 0 0 1 1670.87 1556)">
   <path d="M 75.6836 29.248 C 110.938 29.248 140.088 0.146484 140.088 -35.1074 C 140.088 -70.4102 110.889 -99.5117 75.6348 -99.5117 C 40.3809 -99.5117 11.2793 -70.4102 11.2793 -35.1074 C 11.2793 0.146484 40.3809 29.248 75.6836 29.248 Z M 59.7168 -11.1328 C 53.2715 -11.1328 48.4375 -8.64258 46.6309 -6.93359 C 45.8496 -6.29883 45.0684 -5.85938 43.7988 -5.85938 C 42.1875 -5.85938 40.8691 -6.78711 40.8691 -9.08203 L 40.8691 -57.0801 C 42.7734 -61.377 50.0488 -65.332 58.3008 -65.332 C 65.1855 -65.332 70.9473 -62.3047 73.2422 -58.4961 L 73.2422 -6.29883 C 72.9004 -6.39648 71.6309 -7.22656 71.1426 -7.51953 C 69.4336 -8.64258 65.7715 -11.1328 59.7168 -11.1328 Z M 91.5527 -11.1328 C 85.5469 -11.1328 81.8848 -8.69141 80.2246 -7.51953 C 79.6875 -7.17773 78.4668 -6.29883 78.125 -6.20117 L 78.125 -58.4961 C 80.4688 -62.3047 86.1328 -65.332 93.0176 -65.332 C 101.221 -65.332 108.496 -61.377 110.449 -57.0801 L 110.449 -9.08203 C 110.449 -6.78711 109.131 -5.85938 107.471 -5.85938 C 106.201 -5.85938 105.42 -6.29883 104.639 -6.93359 C 102.832 -8.64258 97.998 -11.1328 91.5527 -11.1328 Z"/>
  </g>
  <g id="Regular-L" transform="matrix(1 0 0 1 1374.97 1556)">
   <path d="M 74.8535 28.4668 C 109.668 28.4668 138.477 -0.341797 138.477 -35.1074 C 138.477 -69.9219 109.619 -98.7305 74.8047 -98.7305 C 40.0391 -98.7305 11.2793 -69.9219 11.2793 -35.1074 C 11.2793 -0.341797 40.0879 28.4668 74.8535 28.4668 Z M 58.4473 -10.8887 C 51.5625 -10.8887 46.5332 -8.20312 44.7266 -6.34766 C 44.043 -5.81055 43.3105 -5.37109 42.1387 -5.37109 C 40.7715 -5.37109 39.6484 -6.15234 39.6484 -8.05664 L 39.6484 -57.4707 C 41.4062 -61.6699 48.9258 -65.5762 57.1777 -65.5762 C 64.4043 -65.5762 70.2637 -62.4512 72.5098 -58.6426 L 72.5098 -5.81055 C 72.2168 -5.81055 70.8984 -6.68945 70.4102 -6.98242 C 68.6523 -8.1543 64.8926 -10.8887 58.4473 -10.8887 Z M 91.2109 -10.8887 C 84.8145 -10.8887 81.0059 -8.20312 79.2969 -6.98242 C 78.8086 -6.64062 77.5879 -5.71289 77.1973 -5.71289 L 77.1973 -58.6426 C 79.541 -62.4512 85.3516 -65.5762 92.5293 -65.5762 C 100.732 -65.5762 108.301 -61.6699 110.059 -57.4707 L 110.059 -8.05664 C 110.059 -6.15234 108.936 -5.37109 107.52 -5.37109 C 106.396 -5.37109 105.615 -5.81055 104.98 -6.34766 C 103.174 -8.20312 98.1445 -10.8887 91.2109 -10.8887 Z"/>
  </g>
  <g id="Light-L" transform="matrix(1 0 0 1 1079.18 1556)">
   <path d="M 73.9258 27.5879 C 108.301 27.5879 136.621 -0.732422 136.621 -35.1074 C 136.621 -69.4336 108.252 -97.7539 73.9258 -97.7539 C 39.5508 -97.7539 11.2793 -69.4336 11.2793 -35.1074 C 11.2793 -0.732422 39.5996 27.5879 73.9258 27.5879 Z M 57.373 -11.084 C 49.8047 -11.084 44.4336 -7.95898 42.9688 -6.10352 C 42.5293 -5.61523 41.8945 -5.32227 40.9668 -5.32227 C 39.8438 -5.32227 38.9648 -5.95703 38.9648 -7.37305 L 38.9648 -57.8613 C 40.0879 -61.4258 47.998 -65.625 56.5918 -65.625 C 63.916 -65.625 69.6289 -62.5977 71.875 -59.4727 L 71.875 -5.61523 C 71.6309 -5.66406 70.752 -6.29883 70.459 -6.49414 C 68.7988 -7.76367 64.6973 -11.084 57.373 -11.084 Z M 90.4785 -11.084 C 83.2031 -11.084 79.0527 -7.8125 77.4414 -6.49414 C 77.0996 -6.25 76.3184 -5.61523 76.0254 -5.56641 L 76.0254 -59.4727 C 78.3203 -62.5977 83.9844 -65.625 91.2598 -65.625 C 99.8535 -65.625 107.764 -61.4258 108.887 -57.8613 L 108.887 -7.37305 C 108.887 -5.95703 108.008 -5.32227 106.885 -5.32227 C 105.957 -5.32227 105.371 -5.61523 104.883 -6.10352 C 103.418 -7.95898 98.0469 -11.084 90.4785 -11.084 Z"/>
  </g>
  <g id="Thin-L" transform="matrix(1 0 0 1 783.693 1556)">
   <path d="M 72.7051 26.416 C 106.494 26.416 134.18 -1.26953 134.18 -35.0586 C 134.18 -68.7988 106.494 -96.4844 72.7051 -96.4844 C 38.9648 -96.4844 11.2793 -68.7988 11.2793 -35.0586 C 11.2793 -1.26953 38.9648 26.416 72.7051 26.416 Z M 55.957 -11.377 C 47.5098 -11.377 41.6992 -7.61719 40.6738 -5.76172 C 40.4297 -5.41992 39.9902 -5.22461 39.3555 -5.22461 C 38.6719 -5.22461 38.1348 -5.66406 38.1348 -6.49414 L 38.1348 -58.3008 C 38.3789 -61.084 46.7773 -65.6738 55.8105 -65.6738 C 63.3301 -65.6738 68.75 -62.793 70.9961 -60.5469 L 70.9961 -5.41992 C 70.8496 -5.46875 70.6055 -5.71289 70.459 -5.85938 C 68.9941 -7.27539 64.4043 -11.377 55.957 -11.377 Z M 89.4531 -11.377 C 81.0059 -11.377 76.4648 -7.27539 75 -5.85938 C 74.8535 -5.71289 74.6094 -5.46875 74.4141 -5.41992 L 74.4141 -60.5469 C 76.709 -62.793 82.1289 -65.6738 89.6484 -65.6738 C 98.6816 -65.6738 107.08 -61.084 107.324 -58.3008 L 107.324 -6.49414 C 107.324 -5.66406 106.738 -5.22461 106.055 -5.22461 C 105.42 -5.22461 104.98 -5.41992 104.736 -5.76172 C 103.76 -7.61719 97.9004 -11.377 89.4531 -11.377 Z"/>
  </g>
  <g id="Ultralight-L" transform="matrix(1 0 0 1 487.616 1556)">
   <path d="M 72.1191 25.7812 C 105.566 25.7812 132.91 -1.5625 132.91 -35.0098 C 132.91 -68.5059 105.566 -95.8496 72.1191 -95.8496 C 38.623 -95.8496 11.2793 -68.5059 11.2793 -35.0098 C 11.2793 -1.5625 38.623 25.7812 72.1191 25.7812 Z M 55.2246 -11.5234 C 46.3379 -11.5234 40.2832 -7.42188 39.502 -5.56641 C 39.4043 -5.32227 39.0625 -5.17578 38.5742 -5.17578 C 38.0859 -5.17578 37.6953 -5.51758 37.6953 -6.00586 L 37.6953 -58.5449 C 37.4512 -60.9375 46.0938 -65.6738 55.4199 -65.6738 C 62.9883 -65.6738 68.3105 -62.8906 70.5566 -61.1328 L 70.5566 -5.32227 C 70.459 -5.37109 70.5078 -5.46875 70.459 -5.51758 C 69.043 -6.98242 64.3066 -11.5234 55.2246 -11.5234 Z M 88.9648 -11.5234 C 79.8828 -11.5234 75.1465 -6.98242 73.7305 -5.51758 C 73.6816 -5.46875 73.7305 -5.41992 73.6328 -5.32227 L 73.6328 -61.1328 C 75.8789 -62.8906 81.2012 -65.6738 88.8184 -65.6738 C 98.0957 -65.6738 106.738 -60.9375 106.494 -58.5449 L 106.494 -6.00586 C 106.494 -5.51758 106.104 -5.17578 105.664 -5.17578 C 105.176 -5.17578 104.785 -5.32227 104.688 -5.56641 C 103.906 -7.42188 97.8516 -11.5234 88.9648 -11.5234 Z"/>
  </g>
  <g id="Black-M" transform="matrix(1 0 0 1 2870.97 1126)">
   <path d="M 62.4023 18.5547 C 91.9922 18.5547 116.113 -5.56641 116.113 -35.1562 C 116.113 -64.7461 91.9922 -88.8184 62.4023 -88.8184 C 32.8125 -88.8184 8.74023 -64.7461 8.74023 -35.1562 C 8.74023 -5.56641 32.8125 18.5547 62.4023 18.5547 Z M 52.4414 -17.9199 C 49.4629 -17.9199 46.6309 -16.8457 45.459 -16.1133 C 44.3359 -15.4297 43.5059 -14.9902 42.0898 -14.9902 C 39.7461 -14.9902 37.793 -16.5039 37.793 -20.0684 L 37.793 -50.2441 C 39.7949 -53.8574 44.1895 -57.2266 50.7812 -57.2266 C 54.6387 -57.2266 58.252 -55.4199 60.2539 -52.9297 L 60.2539 -15.4297 C 59.9121 -15.7715 59.375 -16.1133 58.9355 -16.3574 C 57.7637 -17.041 55.6152 -17.9199 52.4414 -17.9199 Z M 72.3145 -17.9199 C 69.1406 -17.9199 67.041 -17.041 65.8691 -16.3574 C 65.4297 -16.1133 64.8926 -15.7715 64.5996 -15.4297 L 64.5996 -52.9297 C 66.6016 -55.4199 70.1172 -57.2266 74.0234 -57.2266 C 80.5664 -57.2266 84.9609 -53.8574 86.9629 -50.2441 L 86.9629 -20.0684 C 86.9629 -16.4551 85.0098 -14.9902 82.666 -14.9902 C 81.25 -14.9902 80.3711 -15.4297 79.2969 -16.1133 C 78.1738 -16.8457 75.293 -17.9199 72.3145 -17.9199 Z"/>
  </g>
  <g id="Heavy-M" transform="matrix(1 0 0 1 2575.19 1126)">
   <path d="M 61.5234 17.627 C 90.5273 17.627 114.258 -6.10352 114.258 -35.1562 C 114.258 -64.1602 90.5273 -87.8906 61.4746 -87.8906 C 32.4707 -87.8906 8.74023 -64.1602 8.74023 -35.1562 C 8.74023 -6.10352 32.4707 17.627 61.5234 17.627 Z M 50.8789 -17.5293 C 47.4609 -17.5293 44.4336 -16.3086 43.1641 -15.3809 C 42.1387 -14.7461 41.3574 -14.3555 40.0391 -14.3555 C 37.9395 -14.3555 36.2305 -15.625 36.2305 -18.75 L 36.2305 -50.7324 C 38.1348 -54.2969 42.8223 -57.5684 49.3164 -57.5684 C 53.5645 -57.5684 57.4219 -55.6152 59.375 -52.9297 L 59.375 -14.7461 C 59.082 -14.9902 58.3496 -15.4785 57.9102 -15.7227 C 56.6895 -16.4551 54.3945 -17.5293 50.8789 -17.5293 Z M 72.0215 -17.5293 C 68.5547 -17.5293 66.3086 -16.4551 65.0879 -15.7227 C 64.6484 -15.4785 63.9648 -14.9902 63.623 -14.7461 L 63.623 -52.9297 C 65.5762 -55.6152 69.3848 -57.5684 73.6328 -57.5684 C 80.0781 -57.5684 84.8145 -54.2969 86.7188 -50.7324 L 86.7188 -18.75 C 86.7188 -15.5762 85.0098 -14.3555 82.9102 -14.3555 C 81.5918 -14.3555 80.7617 -14.7461 79.7852 -15.3809 C 78.5645 -16.3086 75.4883 -17.5293 72.0215 -17.5293 Z"/>
  </g>
  <g id="Bold-M" transform="matrix(1 0 0 1 2279.5 1126)">
   <path d="M 60.498 16.6016 C 88.8672 16.6016 112.207 -6.73828 112.207 -35.1562 C 112.207 -63.5742 88.8672 -86.9141 60.4492 -86.9141 C 32.0312 -86.9141 8.74023 -63.5742 8.74023 -35.1562 C 8.74023 -6.73828 32.0801 16.6016 60.498 16.6016 Z M 49.1699 -17.0898 C 45.2148 -17.0898 41.9434 -15.6738 40.5762 -14.5508 C 39.6973 -13.9648 38.9648 -13.5742 37.6953 -13.5742 C 35.9375 -13.5742 34.4238 -14.6484 34.4238 -17.2852 L 34.4238 -51.2695 C 36.3281 -54.834 41.3086 -57.959 47.7051 -57.959 C 52.3926 -57.959 56.543 -55.8594 58.3984 -52.8809 L 58.3984 -13.9648 C 58.1055 -14.1602 57.1777 -14.7461 56.7383 -14.9902 C 55.4688 -15.7715 53.0273 -17.0898 49.1699 -17.0898 Z M 71.7285 -17.0898 C 67.9199 -17.0898 65.4785 -15.7715 64.209 -14.9902 C 63.7207 -14.6973 62.8906 -14.1113 62.5488 -13.916 L 62.5488 -52.8809 C 64.4531 -55.8594 68.5059 -57.959 73.1934 -57.959 C 79.5898 -57.959 84.5703 -54.834 86.4746 -51.2695 L 86.4746 -17.2852 C 86.4746 -14.6484 84.9609 -13.5742 83.2031 -13.5742 C 81.9336 -13.5742 81.2012 -13.9648 80.3711 -14.5508 C 79.0039 -15.6738 75.6836 -17.0898 71.7285 -17.0898 Z"/>
  </g>
  <g id="Semibold-M" transform="matrix(1 0 0 1 1983.5 1126)">
   <path d="M 59.7656 15.8691 C 87.7441 15.8691 110.791 -7.17773 110.791 -35.1562 C 110.791 -63.1348 87.6953 -86.1816 59.7656 -86.1816 C 31.7871 -86.1816 8.74023 -63.1348 8.74023 -35.1562 C 8.74023 -7.17773 31.7871 15.8691 59.7656 15.8691 Z M 47.998 -16.748 C 43.6523 -16.748 40.2344 -15.2344 38.7695 -14.0137 C 37.9883 -13.4277 37.3047 -13.0371 36.1328 -13.0371 C 34.5215 -13.0371 33.2031 -13.9648 33.2031 -16.3086 L 33.2031 -51.6113 C 35.0586 -55.2246 40.2832 -58.252 46.582 -58.252 C 51.5625 -58.252 55.9082 -56.0059 57.7148 -52.8809 L 57.7148 -13.4277 C 57.4707 -13.5742 56.3965 -14.209 55.957 -14.4531 C 54.6387 -15.2832 52.0508 -16.748 47.998 -16.748 Z M 71.5332 -16.748 C 67.4805 -16.748 64.8926 -15.332 63.5742 -14.4531 C 63.1348 -14.209 62.1582 -13.4766 61.8164 -13.3789 L 61.8164 -52.8809 C 63.6719 -56.0059 67.9688 -58.252 72.9004 -58.252 C 79.1992 -58.252 84.4727 -55.2246 86.2793 -51.6113 L 86.2793 -16.3086 C 86.2793 -13.9648 84.9609 -13.0371 83.3496 -13.0371 C 82.2266 -13.0371 81.4941 -13.4277 80.7129 -14.0137 C 79.2969 -15.2344 75.8301 -16.748 71.5332 -16.748 Z"/>
  </g>
  <g id="Medium-M" transform="matrix(1 0 0 1 1687.3 1126)">
   <path d="M 59.2285 15.332 C 86.9141 15.332 109.766 -7.51953 109.766 -35.1562 C 109.766 -62.793 86.8652 -85.6445 59.1797 -85.6445 C 31.543 -85.6445 8.74023 -62.793 8.74023 -35.1562 C 8.74023 -7.51953 31.5918 15.332 59.2285 15.332 Z M 47.0703 -16.5527 C 42.4805 -16.5527 38.9648 -14.8926 37.4023 -13.5742 C 36.7188 -13.0371 36.0352 -12.6465 34.9121 -12.6465 C 33.4473 -12.6465 32.2754 -13.4766 32.2754 -15.5762 L 32.2754 -51.9043 C 34.082 -55.4688 39.502 -58.4473 45.752 -58.4473 C 50.9766 -58.4473 55.4199 -56.1035 57.2266 -52.8809 L 57.2266 -13.0371 C 56.9336 -13.1348 55.8105 -13.8184 55.3711 -14.1113 C 54.0039 -14.9414 51.3672 -16.5527 47.0703 -16.5527 Z M 71.3379 -16.5527 C 67.1387 -16.5527 64.4531 -14.9902 63.1348 -14.1113 C 62.6465 -13.8184 61.5723 -13.0371 61.2793 -12.9395 L 61.2793 -52.8809 C 63.0859 -56.1035 67.5293 -58.4473 72.7051 -58.4473 C 78.9551 -58.4473 84.3262 -55.4688 86.1328 -51.9043 L 86.1328 -15.5762 C 86.1328 -13.4766 84.9609 -12.6465 83.4961 -12.6465 C 82.4219 -12.6465 81.7383 -13.0371 81.0059 -13.5742 C 79.4922 -14.8926 75.9766 -16.5527 71.3379 -16.5527 Z"/>
  </g>
  <g id="Regular-M" transform="matrix(1 0 0 1 1391.3 1126)">
   <path d="M 58.5449 14.6484 C 85.791 14.6484 108.35 -7.95898 108.35 -35.1562 C 108.35 -62.4023 85.7422 -84.9609 58.4961 -84.9609 C 31.2988 -84.9609 8.74023 -62.4023 8.74023 -35.1562 C 8.74023 -7.95898 31.3477 14.6484 58.5449 14.6484 Z M 45.8984 -16.2109 C 40.918 -16.2109 37.2559 -14.4531 35.6445 -12.9883 C 35.0098 -12.5 34.375 -12.1582 33.3496 -12.1582 C 32.0801 -12.1582 31.0547 -12.793 31.0547 -14.5508 L 31.0547 -52.2949 C 32.8125 -55.8594 38.4766 -58.7402 44.6289 -58.7402 C 50.1465 -58.7402 54.834 -56.25 56.5918 -52.8809 L 56.5918 -12.5 C 56.2988 -12.5488 55.0293 -13.3301 54.541 -13.5742 C 53.125 -14.4531 50.3906 -16.2109 45.8984 -16.2109 Z M 71.1426 -16.2109 C 66.6992 -16.2109 63.916 -14.502 62.5488 -13.5742 C 62.0117 -13.2812 60.8398 -12.4512 60.5469 -12.4023 L 60.5469 -52.8809 C 62.3047 -56.25 66.9434 -58.7402 72.4121 -58.7402 C 78.5645 -58.7402 84.2285 -55.8594 85.9863 -52.2949 L 85.9863 -14.5508 C 85.9863 -12.793 84.9609 -12.1582 83.6914 -12.1582 C 82.666 -12.1582 82.0312 -12.5 81.3965 -12.9883 C 79.7852 -14.4531 76.123 -16.2109 71.1426 -16.2109 Z"/>
  </g>
  <g id="Light-M" transform="matrix(1 0 0 1 1095.42 1126)">
   <path d="M 57.7148 13.8184 C 84.5215 13.8184 106.689 -8.30078 106.689 -35.1562 C 106.689 -61.9629 84.5215 -84.1309 57.666 -84.1309 C 30.8594 -84.1309 8.74023 -61.9629 8.74023 -35.1562 C 8.74023 -8.30078 30.9082 13.8184 57.7148 13.8184 Z M 44.9707 -16.4062 C 39.3555 -16.4062 35.4004 -14.209 34.082 -12.793 C 33.6426 -12.3535 33.1055 -12.0605 32.2754 -12.0605 C 31.2988 -12.0605 30.5176 -12.5977 30.5176 -13.9648 L 30.5176 -52.5879 C 31.6406 -55.6152 37.5977 -58.7402 44.0918 -58.7402 C 49.7559 -58.7402 54.248 -56.3965 56.0059 -53.6133 L 56.0059 -12.3535 C 55.7617 -12.4023 54.8828 -12.9883 54.5898 -13.1836 C 53.2715 -14.1113 50.2441 -16.4062 44.9707 -16.4062 Z M 70.459 -16.4062 C 65.1855 -16.4062 62.1582 -14.1602 60.8398 -13.1836 C 60.498 -12.9395 59.7168 -12.3535 59.4238 -12.3047 L 59.4238 -53.6133 C 61.2305 -56.3965 65.6738 -58.7402 71.2891 -58.7402 C 77.7832 -58.7402 83.7402 -55.6152 84.9121 -52.5879 L 84.9121 -13.9648 C 84.9121 -12.5977 84.1309 -12.0605 83.1055 -12.0605 C 82.3242 -12.0605 81.7871 -12.3535 81.2988 -12.793 C 80.0293 -14.209 76.0254 -16.4062 70.459 -16.4062 Z"/>
  </g>
  <g id="Thin-M" transform="matrix(1 0 0 1 799.806 1126)">
   <path d="M 56.6406 12.793 C 82.9102 12.793 104.492 -8.78906 104.492 -35.1074 C 104.492 -61.377 82.9102 -82.959 56.5918 -82.959 C 30.3223 -82.959 8.74023 -61.377 8.74023 -35.1074 C 8.74023 -8.78906 30.3223 12.793 56.6406 12.793 Z M 43.7012 -16.6992 C 37.3047 -16.6992 32.9102 -13.916 32.0312 -12.4512 C 31.7871 -12.1582 31.3965 -12.0117 30.8594 -12.0117 C 30.2246 -12.0117 29.7363 -12.3535 29.7363 -13.1348 L 29.7363 -53.0273 C 30.0781 -55.3223 36.5234 -58.7891 43.4082 -58.7891 C 49.2188 -58.7891 53.4668 -56.543 55.2246 -54.6387 L 55.2246 -12.1582 C 55.0781 -12.207 54.7363 -12.5 54.5898 -12.5977 C 53.418 -13.6719 50 -16.6992 43.7012 -16.6992 Z M 69.5312 -16.6992 C 63.2812 -16.6992 59.8145 -13.6719 58.6426 -12.5977 C 58.4961 -12.5 58.2031 -12.207 58.0078 -12.1582 L 58.0078 -54.6387 C 59.7656 -56.543 64.0625 -58.7891 69.8242 -58.7891 C 76.709 -58.7891 83.1543 -55.3223 83.4961 -53.0273 L 83.4961 -13.1348 C 83.4961 -12.3535 83.0078 -12.0117 82.373 -12.0117 C 81.8359 -12.0117 81.4453 -12.1582 81.2012 -12.4512 C 80.3223 -13.916 75.9277 -16.6992 69.5312 -16.6992 Z"/>
  </g>
  <g id="Ultralight-M" transform="matrix(1 0 0 1 503.656 1126)">
   <path d="M 56.0547 12.2559 C 82.0801 12.2559 103.369 -9.0332 103.369 -35.0586 C 103.369 -61.084 82.0801 -82.373 56.0547 -82.373 C 30.0293 -82.373 8.74023 -61.084 8.74023 -35.0586 C 8.74023 -9.0332 30.0293 12.2559 56.0547 12.2559 Z M 43.0176 -16.8457 C 36.2793 -16.8457 31.6406 -13.7695 30.957 -12.3047 C 30.8594 -12.0605 30.5664 -11.9629 30.127 -11.9629 C 29.6875 -11.9629 29.3457 -12.2559 29.3457 -12.7441 L 29.3457 -53.2227 C 29.2969 -55.1758 35.9375 -58.8379 43.0664 -58.8379 C 48.9258 -58.8379 53.0762 -56.6406 54.834 -55.127 L 54.834 -12.0605 C 54.6875 -12.1094 54.6875 -12.2559 54.5898 -12.3047 C 53.5156 -13.4277 49.8535 -16.8457 43.0176 -16.8457 Z M 69.0918 -16.8457 C 62.2559 -16.8457 58.6426 -13.4277 57.5195 -12.3047 C 57.4707 -12.2559 57.4219 -12.1094 57.2754 -12.0605 L 57.2754 -55.127 C 59.0332 -56.6406 63.1836 -58.8379 69.0918 -58.8379 C 76.1719 -58.8379 82.8125 -55.1758 82.7637 -53.2227 L 82.7637 -12.7441 C 82.7637 -12.2559 82.4219 -11.9629 81.9824 -11.9629 C 81.5918 -11.9629 81.25 -12.0605 81.1523 -12.3047 C 80.4688 -13.7695 75.8789 -16.8457 69.0918 -16.8457 Z"/>
  </g>
  <g id="Black-S" transform="matrix(1 0 0 1 2884.57 696)">
   <path d="M 48.8281 6.83594 C 71.9727 6.83594 90.8203 -12.0117 90.8203 -35.1562 C 90.8203 -58.3008 71.9727 -77.1484 48.8281 -77.1484 C 25.6836 -77.1484 6.83594 -58.3008 6.83594 -35.1562 C 6.83594 -12.0117 25.6836 6.83594 48.8281 6.83594 Z M 40.9668 -21.6309 C 38.623 -21.6309 36.377 -20.8008 35.4492 -20.2148 C 34.5703 -19.6777 33.9355 -19.3359 32.8125 -19.3359 C 31.0059 -19.3359 29.4922 -20.5078 29.4922 -23.2422 L 29.4922 -47.0215 C 31.0547 -49.8535 34.5215 -52.4902 39.6484 -52.4902 C 42.7246 -52.4902 45.5566 -51.0742 47.1191 -49.0723 L 47.1191 -19.6777 C 46.875 -19.9219 46.4355 -20.2148 46.0938 -20.4102 C 45.166 -20.9473 43.457 -21.6309 40.9668 -21.6309 Z M 56.6406 -21.6309 C 54.1504 -21.6309 52.4902 -20.9473 51.5625 -20.4102 C 51.2207 -20.2148 50.7812 -19.9219 50.5371 -19.6777 L 50.5371 -49.0723 C 52.0996 -51.0742 54.8828 -52.4902 57.959 -52.4902 C 63.0859 -52.4902 66.5527 -49.8535 68.1152 -47.0215 L 68.1152 -23.2422 C 68.1152 -20.459 66.6016 -19.3359 64.7949 -19.3359 C 63.6719 -19.3359 62.9883 -19.6777 62.1582 -20.2148 C 61.2793 -20.8008 58.9844 -21.6309 56.6406 -21.6309 Z"/>
  </g>
  <g id="Heavy-S" transform="matrix(1 0 0 1 2588.47 696)">
   <path d="M 48.2422 6.20117 C 70.9961 6.20117 89.5996 -12.4023 89.5996 -35.1562 C 89.5996 -57.9102 70.9961 -76.5625 48.1934 -76.5625 C 25.4395 -76.5625 6.83594 -57.9102 6.83594 -35.1562 C 6.83594 -12.4023 25.4395 6.20117 48.2422 6.20117 Z M 39.8926 -21.2891 C 37.2559 -21.2891 34.9121 -20.4102 33.8379 -19.6777 C 33.0566 -19.1895 32.4219 -18.8477 31.3477 -18.8477 C 29.6875 -18.8477 28.3203 -19.873 28.3203 -22.3145 L 28.3203 -47.3633 C 29.9316 -50.2441 33.5938 -52.7344 38.623 -52.7344 C 41.9434 -52.7344 45.0195 -51.2207 46.5332 -48.9746 L 46.5332 -19.1895 C 46.2891 -19.3359 45.6543 -19.7754 45.3125 -19.9707 C 44.3359 -20.5078 42.5293 -21.2891 39.8926 -21.2891 Z M 56.4941 -21.2891 C 53.8574 -21.2891 52.0996 -20.5078 51.123 -19.9707 C 50.7812 -19.7266 50.1953 -19.3359 49.9023 -19.1406 L 49.9023 -48.9746 C 51.4648 -51.2207 54.4434 -52.7344 57.8125 -52.7344 C 62.793 -52.7344 66.4551 -50.2441 68.0664 -47.3633 L 68.0664 -22.3145 C 68.0664 -19.8242 66.6992 -18.8477 65.0391 -18.8477 C 63.9648 -18.8477 63.3301 -19.1895 62.5488 -19.6777 C 61.5234 -20.4102 59.1309 -21.2891 56.4941 -21.2891 Z"/>
  </g>
  <g id="Bold-S" transform="matrix(1 0 0 1 2292.44 696)">
   <path d="M 47.5586 5.51758 C 69.873 5.51758 88.2324 -12.8418 88.2324 -35.1562 C 88.2324 -57.5195 69.873 -75.8789 47.5098 -75.8789 C 25.1953 -75.8789 6.83594 -57.5195 6.83594 -35.1562 C 6.83594 -12.8418 25.1953 5.51758 47.5586 5.51758 Z M 38.6719 -20.9473 C 35.7422 -20.9473 33.252 -19.9219 32.0801 -19.0918 C 31.3477 -18.6035 30.7129 -18.2617 29.7363 -18.2617 C 28.2715 -18.2617 27.0508 -19.1406 27.0508 -21.2891 L 27.0508 -47.7539 C 28.6621 -50.6836 32.5195 -53.0762 37.4512 -53.0762 C 41.1133 -53.0762 44.3848 -51.3672 45.8496 -48.877 L 45.8496 -18.6035 C 45.6055 -18.7012 44.7754 -19.2383 44.4336 -19.4336 C 43.3594 -20.0195 41.5039 -20.9473 38.6719 -20.9473 Z M 56.3477 -20.9473 C 53.5645 -20.9473 51.709 -20.0684 50.6836 -19.4336 C 50.293 -19.1895 49.5117 -18.6523 49.2188 -18.5547 L 49.2188 -48.877 C 50.7324 -51.3672 53.9551 -53.0762 57.6172 -53.0762 C 62.5 -53.0762 66.3574 -50.6836 67.9688 -47.7539 L 67.9688 -21.2891 C 67.9688 -19.0918 66.7969 -18.2617 65.332 -18.2617 C 64.3066 -18.2617 63.6719 -18.6035 62.9883 -19.0918 C 61.8164 -19.9219 59.3262 -20.9473 56.3477 -20.9473 Z"/>
  </g>
  <g id="Semibold-S" transform="matrix(1 0 0 1 1996.2 696)">
   <path d="M 47.0703 5.0293 C 69.0918 5.0293 87.3047 -13.1348 87.3047 -35.2051 C 87.3047 -57.2266 69.0918 -75.4395 47.0215 -75.4395 C 25 -75.4395 6.83594 -57.2266 6.83594 -35.2051 C 6.83594 -13.1348 25.0488 5.0293 47.0703 5.0293 Z M 37.8906 -20.7031 C 34.668 -20.7031 32.0801 -19.6289 30.8105 -18.6523 C 30.1758 -18.2129 29.5898 -17.8711 28.6133 -17.8711 C 27.2461 -17.8711 26.1719 -18.6035 26.1719 -20.5566 L 26.1719 -47.998 C 27.7832 -50.9766 31.7871 -53.2715 36.6211 -53.2715 C 40.5273 -53.2715 43.9453 -51.4648 45.4102 -48.8281 L 45.4102 -18.2129 C 45.166 -18.2617 44.1895 -18.8965 43.7988 -19.0918 C 42.7246 -19.7266 40.8203 -20.7031 37.8906 -20.7031 Z M 56.25 -20.7031 C 53.3203 -20.7031 51.416 -19.7266 50.3418 -19.0918 C 49.9512 -18.8477 49.0234 -18.2129 48.7793 -18.1152 L 48.7793 -48.8281 C 50.1953 -51.4648 53.6133 -53.2715 57.4707 -53.2715 C 62.3047 -53.2715 66.3086 -50.9766 67.9199 -47.998 L 67.9199 -20.5566 C 67.9199 -18.6035 66.8457 -17.8711 65.4785 -17.8711 C 64.5508 -17.8711 63.916 -18.2129 63.2812 -18.6523 C 62.0605 -19.6289 59.4238 -20.7031 56.25 -20.7031 Z"/>
  </g>
  <g id="Medium-S" transform="matrix(1 0 0 1 1699.83 696)">
   <path d="M 46.7285 4.6875 C 68.5547 4.6875 86.6211 -13.3789 86.6211 -35.2051 C 86.6211 -56.9824 68.5059 -75.0977 46.6797 -75.0977 C 24.8535 -75.0977 6.83594 -56.9824 6.83594 -35.2051 C 6.83594 -13.3789 24.9023 4.6875 46.7285 4.6875 Z M 37.2559 -20.5078 C 33.8379 -20.5078 31.2012 -19.3848 29.8828 -18.3594 C 29.248 -17.9199 28.7109 -17.5781 27.7344 -17.5781 C 26.5137 -17.5781 25.4883 -18.2617 25.4883 -20.0195 L 25.4883 -48.1934 C 27.1484 -51.1719 31.25 -53.418 36.0352 -53.418 C 40.0879 -53.418 43.6523 -51.5137 45.0195 -48.7793 L 45.0195 -17.9199 C 44.8242 -17.9199 43.75 -18.6035 43.3105 -18.8477 C 42.2363 -19.4824 40.2832 -20.5078 37.2559 -20.5078 Z M 56.1523 -20.5078 C 53.1738 -20.5078 51.1719 -19.4824 50.0977 -18.8477 C 49.6582 -18.5547 48.6816 -17.8711 48.3887 -17.8223 L 48.3887 -48.7793 C 49.8535 -51.5137 53.3691 -53.418 57.373 -53.418 C 62.1582 -53.418 66.2598 -51.1719 67.9199 -48.1934 L 67.9199 -20.0195 C 67.9199 -18.2129 66.8945 -17.5781 65.625 -17.5781 C 64.6973 -17.5781 64.1113 -17.9199 63.5254 -18.3594 C 62.207 -19.3848 59.5215 -20.5078 56.1523 -20.5078 Z"/>
  </g>
  <g id="Regular-S" transform="matrix(1 0 0 1 1403.58 696)">
   <path d="M 46.2402 4.19922 C 67.7734 4.19922 85.6934 -13.6719 85.6934 -35.2051 C 85.6934 -56.7383 67.7246 -74.6094 46.1914 -74.6094 C 24.707 -74.6094 6.83594 -56.7383 6.83594 -35.2051 C 6.83594 -13.6719 24.7559 4.19922 46.2402 4.19922 Z M 36.4258 -20.2637 C 32.8125 -20.2637 30.0781 -19.043 28.6621 -17.9199 C 28.125 -17.5293 27.5391 -17.1875 26.6602 -17.1875 C 25.4883 -17.1875 24.6094 -17.7246 24.6094 -19.3359 L 24.6094 -48.4375 C 26.2695 -51.4648 30.5176 -53.6133 35.2051 -53.6133 C 39.502 -53.6133 43.2129 -51.6113 44.5801 -48.6816 L 44.5801 -17.5293 C 44.3359 -17.5293 43.1641 -18.2617 42.7246 -18.5059 C 41.5527 -19.1406 39.5508 -20.2637 36.4258 -20.2637 Z M 56.0547 -20.2637 C 52.9297 -20.2637 50.8789 -19.1895 49.8047 -18.5059 C 49.3164 -18.2129 48.1934 -17.4316 47.9492 -17.4316 L 47.9492 -48.6816 C 49.3652 -51.6113 53.0273 -53.6133 57.2266 -53.6133 C 61.9141 -53.6133 66.2109 -51.4648 67.8711 -48.4375 L 67.8711 -19.3359 C 67.8711 -17.7246 66.9434 -17.1875 65.8203 -17.1875 C 64.9414 -17.1875 64.3555 -17.5293 63.8184 -17.9199 C 62.4023 -19.043 59.668 -20.2637 56.0547 -20.2637 Z"/>
  </g>
  <g id="Light-S" transform="matrix(1 0 0 1 1107.6 696)">
   <path d="M 45.5078 3.51562 C 66.6992 3.51562 84.2285 -14.0137 84.2285 -35.1562 C 84.2285 -56.3477 66.6504 -73.877 45.5078 -73.877 C 24.3164 -73.877 6.83594 -56.3477 6.83594 -35.1562 C 6.83594 -14.0137 24.3652 3.51562 45.5078 3.51562 Z M 35.5957 -20.4102 C 31.4453 -20.4102 28.418 -18.8477 27.2949 -17.7246 C 26.8555 -17.3828 26.416 -17.1387 25.6836 -17.1387 C 24.8047 -17.1387 24.1211 -17.5781 24.1211 -18.7988 L 24.1211 -48.7305 C 25.2441 -51.2695 29.7852 -53.6621 34.7656 -53.6621 C 39.1113 -53.6621 42.7246 -51.7578 44.0918 -49.3652 L 44.0918 -17.3828 C 43.8965 -17.3828 43.0664 -17.9199 42.7246 -18.1152 C 41.6504 -18.8477 39.4043 -20.4102 35.5957 -20.4102 Z M 55.4688 -20.4102 C 51.6602 -20.4102 49.3652 -18.8477 48.291 -18.1152 C 47.998 -17.9199 47.2168 -17.334 46.9727 -17.334 L 46.9727 -49.3652 C 48.3887 -51.7578 51.9531 -53.6621 56.25 -53.6621 C 61.2305 -53.6621 65.7715 -51.2695 66.8945 -48.7305 L 66.8945 -18.7988 C 66.8945 -17.5781 66.2109 -17.1387 65.332 -17.1387 C 64.5996 -17.1387 64.1602 -17.3828 63.7207 -17.7246 C 62.5977 -18.8477 59.5703 -20.4102 55.4688 -20.4102 Z"/>
  </g>
  <g id="Thin-S" transform="matrix(1 0 0 1 811.867 696)">
   <path d="M 44.5801 2.58789 C 65.2832 2.58789 82.2754 -14.4043 82.2754 -35.1562 C 82.2754 -55.8594 65.2344 -72.8516 44.5312 -72.8516 C 23.8281 -72.8516 6.83594 -55.8594 6.83594 -35.1562 C 6.83594 -14.4043 23.877 2.58789 44.5801 2.58789 Z M 34.4727 -20.6543 C 29.6387 -20.6543 26.2207 -18.6035 25.4883 -17.4805 C 25.2441 -17.1875 24.9023 -17.041 24.4141 -17.041 C 23.877 -17.041 23.4375 -17.3828 23.4375 -18.0664 L 23.4375 -49.0723 C 23.877 -51.0254 28.8086 -53.6621 34.1309 -53.6621 C 38.623 -53.6621 42.041 -51.9043 43.4082 -50.2441 L 43.4082 -17.1875 C 43.2617 -17.2363 42.9199 -17.5293 42.7734 -17.627 C 41.7969 -18.4082 39.209 -20.6543 34.4727 -20.6543 Z M 54.6387 -20.6543 C 49.9023 -20.6543 47.3145 -18.457 46.3379 -17.627 C 46.1914 -17.4805 45.8496 -17.2363 45.7031 -17.1875 L 45.7031 -50.2441 C 47.1191 -51.9043 50.4883 -53.6621 54.9805 -53.6621 C 60.3027 -53.6621 65.2344 -51.0254 65.6738 -49.0723 L 65.6738 -18.0664 C 65.6738 -17.3828 65.2344 -17.041 64.6973 -17.041 C 64.209 -17.041 63.8672 -17.1875 63.623 -17.4805 C 62.8418 -18.6035 59.4727 -20.6543 54.6387 -20.6543 Z"/>
  </g>
  <g id="Ultralight-S" transform="matrix(1 0 0 1 515.644 696)">
   <path d="M 44.043 2.09961 C 64.502 2.09961 81.2988 -14.6484 81.2988 -35.1074 C 81.2988 -55.5664 64.502 -72.3145 44.043 -72.3145 C 23.584 -72.3145 6.83594 -55.5664 6.83594 -35.1074 C 6.83594 -14.6484 23.584 2.09961 44.043 2.09961 Z M 33.8867 -20.752 C 28.6621 -20.752 25.0977 -18.457 24.5117 -17.334 C 24.4141 -17.0898 24.1699 -16.9922 23.7793 -16.9922 C 23.3887 -16.9922 23.0957 -17.2852 23.0957 -17.7246 L 23.0957 -49.2676 C 23.1445 -50.9277 28.2715 -53.7109 33.7891 -53.7109 C 38.3789 -53.7109 41.6992 -52.002 43.0664 -50.6836 L 43.0664 -17.0898 C 42.9199 -17.1387 42.8223 -17.2852 42.7734 -17.334 C 41.8945 -18.2129 39.1113 -20.752 33.8867 -20.752 Z M 54.248 -20.752 C 49.0234 -20.752 46.2402 -18.2129 45.3613 -17.334 C 45.2637 -17.2852 45.166 -17.1387 45.0684 -17.0898 L 45.0684 -50.6836 C 46.4355 -52.002 49.7559 -53.7109 54.2969 -53.7109 C 59.8145 -53.7109 64.9414 -50.9277 65.0391 -49.2676 L 65.0391 -17.7246 C 65.0391 -17.2852 64.6973 -16.9922 64.3555 -16.9922 C 63.9648 -16.9922 63.7207 -17.0898 63.5742 -17.334 C 62.9883 -18.457 59.4238 -20.752 54.248 -20.752 Z"/>
  </g>
 </g>
</svg>
